<svg xmlns="http://www.w3.org/2000/svg" width="323" height="296" viewBox="0 0 323 296" version="1.1"><path d="M 194 58.005 L 194 71.254 233.500 110.226 C 255.225 131.661, 273 149.547, 273 149.972 C 273 150.398, 255.226 169.366, 233.501 192.123 L 194.002 233.500 194.001 245.750 C 194 255.030, 194.310 258, 195.279 258 C 197.287 258, 302 151.317, 302 149.271 C 302 148.734, 293.337 140.018, 282.750 129.900 C 258.056 106.303, 236.959 85.944, 215 64.519 C 205.375 55.127, 196.713 46.839, 195.750 46.099 C 194.104 44.835, 194 45.541, 194 58.005" stroke="none" fill="#00b4ff" fill-rule="evenodd"/><path d="M 42.429 45.325 C 42.149 46.054, 42.051 50.876, 42.210 56.041 L 42.500 65.431 49.500 67.060 C 84.681 75.249, 107.625 98.919, 113.604 133.192 C 116.763 151.301, 114.056 169.706, 105.612 187.532 C 100.355 198.629, 96.338 204.799, 90.110 211.343 C 78.818 223.207, 59.074 233, 46.447 233 L 41.258 233 40.551 242.967 C 40.162 248.449, 40.118 253.798, 40.453 254.853 C 41.030 256.671, 42.684 256.804, 72.281 257.411 C 174.291 259.503, 185.529 259.617, 186.710 258.571 C 187.588 257.794, 187.755 254.593, 187.318 246.900 L 186.716 236.300 171.699 235.650 C 163.440 235.292, 142.380 235, 124.900 235 C 105.897 235, 92.882 234.618, 92.531 234.050 C 92.208 233.527, 95.219 230.881, 99.222 228.170 C 107.110 222.828, 116.674 213.344, 121.907 205.675 C 142.458 175.557, 142.914 126.622, 122.960 92.542 C 118.328 84.630, 108.719 72.517, 105.296 70.274 C 104.033 69.447, 103 68.372, 103 67.885 C 103 67.387, 120.161 66.994, 142.250 66.986 C 163.838 66.979, 182.512 66.701, 183.750 66.370 C 185.909 65.791, 186 65.324, 186 54.883 L 186 44 114.469 44 C 56.006 44, 42.844 44.242, 42.429 45.325" stroke="none" fill="#f87204" fill-rule="evenodd"/><path d="M 42.429 45.325 C 42.149 46.054, 42.051 50.876, 42.210 56.041 L 42.500 65.431 49.500 67.060 C 84.681 75.249, 107.625 98.919, 113.604 133.192 C 116.763 151.301, 114.056 169.706, 105.612 187.532 C 100.355 198.629, 96.338 204.799, 90.110 211.343 C 78.818 223.207, 59.074 233, 46.447 233 L 41.258 233 40.551 242.967 C 40.162 248.449, 40.118 253.798, 40.453 254.853 C 41.030 256.671, 42.684 256.804, 72.281 257.411 C 174.291 259.503, 185.529 259.617, 186.710 258.571 C 187.588 257.794, 187.755 254.593, 187.318 246.900 L 186.716 236.300 171.699 235.650 C 163.440 235.292, 142.380 235, 124.900 235 C 105.897 235, 92.882 234.618, 92.531 234.050 C 92.208 233.527, 95.219 230.881, 99.222 228.170 C 107.110 222.828, 116.674 213.344, 121.907 205.675 C 142.458 175.557, 142.914 126.622, 122.960 92.542 C 118.328 84.630, 108.719 72.517, 105.296 70.274 C 104.033 69.447, 103 68.372, 103 67.885 C 103 67.387, 120.161 66.994, 142.250 66.986 C 163.838 66.979, 182.512 66.701, 183.750 66.370 C 185.909 65.791, 186 65.324, 186 54.883 L 186 44 114.469 44 C 56.006 44, 42.844 44.242, 42.429 45.325" stroke="none" fill="#f87204" fill-rule="evenodd"/><path d="M 0 148.003 L 0 296.006 161.750 295.753 L 323.500 295.500 323.753 147.750 L 324.007 0 162.003 0 L 0 0 0 148.003 M 0.487 148.500 C 0.487 229.900, 0.605 263.052, 0.750 222.172 C 0.895 181.291, 0.895 114.691, 0.750 74.172 C 0.605 33.652, 0.487 67.100, 0.487 148.500 M 42.429 45.325 C 42.149 46.054, 42.051 50.876, 42.210 56.041 L 42.500 65.431 49.500 67.060 C 84.681 75.249, 107.625 98.919, 113.604 133.192 C 116.763 151.301, 114.056 169.706, 105.612 187.532 C 100.355 198.629, 96.338 204.799, 90.110 211.343 C 78.818 223.207, 59.074 233, 46.447 233 L 41.258 233 40.551 242.967 C 40.162 248.449, 40.118 253.798, 40.453 254.853 C 41.030 256.671, 42.684 256.804, 72.281 257.411 C 174.291 259.503, 185.529 259.617, 186.710 258.571 C 187.588 257.794, 187.755 254.593, 187.318 246.900 L 186.716 236.300 171.699 235.650 C 163.440 235.292, 142.380 235, 124.900 235 C 105.897 235, 92.882 234.618, 92.531 234.050 C 92.208 233.527, 95.219 230.881, 99.222 228.170 C 107.110 222.828, 116.674 213.344, 121.907 205.675 C 142.458 175.557, 142.914 126.622, 122.960 92.542 C 118.328 84.630, 108.719 72.517, 105.296 70.274 C 104.033 69.447, 103 68.372, 103 67.885 C 103 67.387, 120.161 66.994, 142.250 66.986 C 163.838 66.979, 182.512 66.701, 183.750 66.370 C 185.909 65.791, 186 65.324, 186 54.883 L 186 44 114.469 44 C 56.006 44, 42.844 44.242, 42.429 45.325 M 194 58.005 L 194 71.254 233.500 110.226 C 255.225 131.661, 273 149.547, 273 149.972 C 273 150.398, 255.226 169.366, 233.501 192.123 L 194.002 233.500 194.001 245.750 C 194 255.030, 194.310 258, 195.279 258 C 197.287 258, 302 151.317, 302 149.271 C 302 148.734, 293.337 140.018, 282.750 129.900 C 258.056 106.303, 236.959 85.944, 215 64.519 C 205.375 55.127, 196.713 46.839, 195.750 46.099 C 194.104 44.835, 194 45.541, 194 58.005" stroke="none" fill="#0c0c0c" fill-rule="evenodd"/></svg>