<svg xmlns="http://www.w3.org/2000/svg" width="988" height="1280" viewBox="0 0 988 1280" version="1.1"><path d="M 514.750 50.693 C 515.987 50.935, 517 51.755, 517 52.515 C 517 53.677, 516.440 53.664, 513.500 52.436 C 510.438 51.156, 510 51.155, 510 52.430 C 510 54.046, 513.715 57, 515.748 57 C 518.011 57, 527.081 64.332, 525.798 65.125 C 524.592 65.870, 527.568 69.919, 535.250 77.984 C 537.313 80.149, 539 82.336, 539 82.844 C 539 83.351, 540.109 83.979, 541.465 84.238 L 543.929 84.709 541.855 81.797 C 539.157 78.008, 539.994 77.295, 543.624 80.291 C 545.206 81.597, 549.286 84.539, 552.692 86.830 C 556.097 89.121, 559.472 91.811, 560.192 92.809 C 560.911 93.806, 562.128 94.999, 562.896 95.460 C 564.018 96.134, 564.150 95.729, 563.569 93.399 L 562.847 90.500 566.045 93.500 C 567.804 95.150, 569.846 97.850, 570.583 99.500 C 571.611 101.803, 571.931 102.035, 571.961 100.497 C 571.982 99.395, 570.406 96.251, 568.457 93.511 C 566.509 90.771, 565.387 88.371, 565.964 88.179 C 566.541 87.986, 566.715 87.348, 566.352 86.760 C 565.982 86.163, 566.158 85.980, 566.750 86.346 C 567.333 86.706, 569.216 89.493, 570.936 92.540 C 572.655 95.587, 574.456 97.836, 574.937 97.539 C 576.127 96.803, 575.074 92.766, 573.325 91.355 C 571.658 90.011, 571.049 84.870, 572.500 84.382 C 573.501 84.046, 578.673 90.609, 580.438 94.456 C 581.306 96.348, 581.404 96.291, 581.761 93.683 L 582.146 90.865 584.589 93.502 C 585.933 94.952, 586.793 96.526, 586.500 97 C 585.801 98.131, 587.719 99.292, 588.989 98.507 C 589.594 98.133, 589.347 96.933, 588.351 95.414 C 587.134 93.555, 586.975 92.375, 587.721 90.716 C 588.671 88.603, 588.751 88.651, 589.440 91.759 C 590.441 96.271, 592 94.823, 592 89.382 C 592 86.519, 592.379 85.116, 593.041 85.525 C 593.613 85.879, 593.828 86.967, 593.518 87.943 C 593.205 88.930, 593.641 90.287, 594.500 91 C 595.820 92.095, 595.949 92.006, 595.381 90.391 C 594.748 88.590, 594.803 88.582, 596.561 90.239 C 597.576 91.196, 598.428 93.183, 598.453 94.656 C 598.479 96.129, 599.110 97.537, 599.855 97.785 C 600.862 98.121, 601.026 97.628, 600.493 95.868 C 599.994 94.223, 600.097 93.805, 600.830 94.500 C 602.538 96.120, 601.070 104, 599.059 104 C 598.137 104, 596.528 104.625, 595.483 105.389 C 594.438 106.153, 593.002 106.554, 592.292 106.282 C 589.973 105.392, 590.935 107.650, 593.342 108.746 C 594.757 109.391, 596.241 109.461, 597.092 108.922 C 599.180 107.600, 600.010 107.811, 599.362 109.500 C 598.293 112.285, 602.842 111.133, 605.129 108.039 C 606.333 106.411, 607.765 105.354, 608.310 105.692 C 608.856 106.029, 607.322 102.545, 604.901 97.950 C 602.292 92.998, 597.899 86.821, 594.113 82.781 C 588.688 76.993, 586.050 75.145, 576.613 70.524 C 570.501 67.532, 565.339 65.548, 565.142 66.116 C 564.945 66.683, 566.229 68.946, 567.996 71.144 L 571.207 75.141 565.350 70.820 C 556.880 64.573, 553.530 62.952, 558.093 67.309 C 561.690 70.743, 563.652 74, 562.124 74 C 561.676 74, 560.481 73.084, 559.468 71.965 C 558.455 70.845, 557.078 70.140, 556.407 70.397 C 554.896 70.977, 552 67.910, 552 65.730 C 552 64.844, 551.550 63.840, 551 63.500 C 550.402 63.130, 549.988 64.413, 549.970 66.691 C 549.943 70.017, 549.799 70.246, 548.836 68.500 C 546.668 64.570, 542.635 61.056, 537.297 58.444 C 534.315 56.985, 531.616 56.051, 531.299 56.368 C 530.982 56.685, 531.892 57.389, 533.321 57.932 C 536.245 59.044, 540 62.470, 540 64.026 C 540 64.614, 538.741 64.400, 537.050 63.526 C 533.354 61.615, 533 61.622, 533 63.615 C 533 64.503, 534.656 66.747, 536.680 68.601 C 538.705 70.456, 540.066 72.268, 539.705 72.628 C 539.146 73.188, 534.241 68.597, 530.362 63.883 C 529.736 63.122, 527.552 61.206, 525.507 59.624 C 523.463 58.042, 522.247 56.466, 522.804 56.121 C 524.872 54.843, 520.168 50.824, 516.264 50.533 C 514.194 50.379, 513.513 50.451, 514.750 50.693 M 498 59.676 C 498 60.739, 507.215 65, 509.514 65 C 510.989 65, 511.048 64.763, 509.914 63.396 C 507.899 60.968, 498 57.878, 498 59.676 M 515.861 65.276 C 516.975 67.077, 518.535 69.802, 519.328 71.332 C 521.188 74.916, 524.162 77.111, 525.573 75.940 C 526.263 75.366, 527.863 76.295, 530.022 78.522 C 531.876 80.435, 533.754 82, 534.196 82 C 536.448 82, 534.322 78.668, 528.250 72.683 C 521.225 65.757, 518.751 63.787, 515.669 62.666 C 513.962 62.046, 513.975 62.224, 515.861 65.276 M 488.650 64.683 C 488.274 65.059, 489.437 65.996, 491.233 66.766 C 494.620 68.217, 496.096 68.600, 502 69.563 L 505.500 70.134 502.632 67.513 C 500.426 65.497, 499.121 65.034, 496.977 65.505 C 495.417 65.848, 493.902 65.651, 493.536 65.059 C 492.803 63.872, 489.699 63.634, 488.650 64.683 M 489.500 69.497 C 491.393 71.019, 500.082 75.347, 506.379 77.905 C 507.963 78.549, 509.041 79.292, 508.775 79.558 C 507.938 80.396, 497.573 77.839, 495.921 76.387 C 495.053 75.624, 493.451 75, 492.362 75 C 491.273 75, 489.528 74.375, 488.483 73.611 C 486.349 72.050, 483.620 72.592, 484.737 74.355 C 485.458 75.491, 486.052 81, 485.454 81 C 485.283 81, 484.495 80.353, 483.704 79.561 C 482.452 78.310, 481.797 78.342, 478.665 79.811 C 476.685 80.740, 475.050 81.747, 475.033 82.048 C 475.015 82.349, 477.695 84.313, 480.989 86.411 C 484.283 88.510, 486.750 90.595, 486.471 91.046 C 486.193 91.497, 487.323 92.668, 488.982 93.649 C 490.642 94.629, 492 95.901, 492 96.475 C 492 98.047, 495.789 100.150, 496.513 98.980 C 496.846 98.441, 496.459 98, 495.653 98 C 494.680 98, 494.363 97.328, 494.710 96 C 495.335 93.610, 494.784 93.655, 500.124 95.566 C 502.531 96.427, 508.045 97.281, 512.377 97.463 C 519.563 97.764, 521.916 98.639, 521.985 101.034 C 522.034 102.762, 515.115 105.321, 510.666 105.220 L 505.703 105.107 509.076 107.922 L 512.448 110.737 507.474 110.865 C 501.314 111.022, 496.798 110.136, 497.550 108.919 C 497.863 108.413, 497.529 107.930, 496.809 107.844 C 496.089 107.758, 494.375 107.562, 493 107.408 C 491.625 107.254, 489.262 106.822, 487.750 106.447 C 485.986 106.011, 485 106.167, 485 106.883 C 485 107.498, 485.563 108.010, 486.250 108.022 C 486.938 108.034, 488.625 108.976, 490 110.115 C 491.781 111.591, 491.974 112.016, 490.671 111.594 C 488.299 110.826, 483.847 111.943, 484.576 113.123 C 484.885 113.623, 485.548 113.779, 486.048 113.470 C 487.071 112.838, 491.003 114.679, 490.994 115.785 C 490.991 116.178, 489.237 116.565, 487.095 116.644 C 484.954 116.723, 482.390 117.242, 481.399 117.796 C 479.826 118.677, 480.098 119.017, 483.549 120.480 C 485.722 121.401, 489.975 122.420, 493 122.744 C 498.266 123.307, 498.372 123.375, 495.500 124.328 C 489.878 126.195, 488.344 130.420, 492.689 132.072 C 494.168 132.634, 495.993 133.973, 496.745 135.047 C 497.498 136.121, 499.213 137, 500.557 137 C 501.978 137, 502.895 137.523, 502.750 138.250 C 502.599 139.005, 503.391 139.406, 504.750 139.262 C 507.139 139.009, 507.852 140.489, 505.750 141.338 C 505.063 141.615, 505.992 141.878, 507.816 141.921 C 511.950 142.019, 515 143.589, 515 145.618 C 515 146.872, 514.048 147.076, 509.989 146.696 C 507.234 146.437, 504.732 146.624, 504.430 147.113 C 504.129 147.601, 503.009 148, 501.941 148 C 500.873 148, 500 148.450, 500 149 C 500 149.550, 501.012 150.016, 502.250 150.035 C 503.488 150.055, 505.625 150.714, 507 151.500 C 509.379 152.860, 509.211 152.931, 503.500 152.978 C 500.200 153.005, 496.488 153.299, 495.250 153.630 C 491.133 154.734, 492.927 156, 498.607 156 C 503.180 156, 504.108 156.277, 503.638 157.500 C 503.243 158.529, 503.699 159, 505.090 159 C 506.206 159, 506.840 158.550, 506.500 158 C 506.127 157.397, 507.479 157, 509.910 157 C 513.079 157, 513.815 157.320, 513.362 158.500 C 513.045 159.325, 512.481 160, 512.109 160 C 511.736 160, 510.634 161.350, 509.659 163 C 508.684 164.650, 507.488 166, 507 166 C 506.512 166, 503.772 168.475, 500.912 171.500 C 498.051 174.525, 495.040 177, 494.221 177 C 493.403 177, 490.543 179.225, 487.866 181.944 C 483.245 186.639, 481.707 190.402, 484.086 191.195 C 484.838 191.446, 484.890 193.102, 484.256 196.590 C 483.753 199.358, 483.683 202.495, 484.100 203.561 C 484.518 204.628, 484.891 205.178, 484.930 204.786 C 484.968 204.393, 487.025 204.939, 489.500 206 C 493.912 207.891, 495.183 207.583, 492.800 205.200 C 491.867 204.267, 491.983 204, 493.325 204 C 494.273 204, 495.477 205.125, 496 206.500 C 497.104 209.405, 497.601 209.541, 499.643 207.500 C 500.468 206.675, 501.561 206, 502.071 206 C 503.361 206, 503.239 208.734, 501.913 209.554 C 500.107 210.670, 506.728 216.602, 511.310 217.974 C 513.615 218.664, 516.491 219.691, 517.702 220.257 C 518.983 220.856, 522.276 221.008, 525.572 220.620 C 528.689 220.254, 531.749 220.354, 532.370 220.843 C 532.992 221.332, 534.749 222.133, 536.275 222.624 L 539.049 223.516 536.065 227.008 C 534.424 228.929, 533.047 231.175, 533.005 232 C 532.963 232.825, 532.317 234.606, 531.568 235.958 C 530.696 237.533, 530.503 239.192, 531.031 240.581 C 531.974 243.062, 530.558 245, 527.800 245 C 526.810 245, 526 245.661, 526 246.469 C 526 247.450, 525.420 247.720, 524.250 247.281 C 522.718 246.707, 522.671 246.835, 523.872 248.313 C 525.114 249.839, 524.876 250.011, 521.372 250.116 C 519.243 250.180, 518.234 250.428, 519.132 250.667 C 520.488 251.028, 520.572 251.515, 519.632 253.543 C 518.460 256.070, 515.458 256.874, 514.781 254.842 C 514.518 254.053, 513.456 253.951, 511.447 254.522 C 508.764 255.286, 508.702 255.396, 510.750 255.750 C 511.988 255.964, 513 256.744, 513 257.484 C 513 258.430, 515.241 259.039, 520.545 259.536 C 524.695 259.925, 527.861 260.473, 527.580 260.753 C 527.300 261.034, 527.550 262.160, 528.137 263.256 C 529.089 265.036, 529.974 265.201, 536.358 264.791 C 540.292 264.538, 544.634 263.711, 546.006 262.953 C 547.378 262.195, 548.837 261.671, 549.250 261.788 C 549.663 261.904, 550 261.100, 550 260 C 550 258.900, 550.662 258, 551.470 258 C 552.279 258, 555.597 256.650, 558.844 255 C 562.091 253.350, 565.734 252, 566.939 252 C 568.145 252, 572.540 250.425, 576.706 248.500 C 580.873 246.575, 584.893 245, 585.641 245 C 587.551 245, 587.332 242.610, 585.250 240.727 C 584.288 239.857, 581.250 238.410, 578.500 237.513 C 573.062 235.738, 568 230.914, 568 227.507 C 568 226.098, 569.036 225.038, 571.250 224.182 C 576.091 222.310, 588.810 220.005, 594.500 219.968 C 597.301 219.950, 600.354 219.291, 601.441 218.468 C 603.915 216.597, 605 216.607, 605 218.500 C 605 219.325, 605.450 220, 606 220 C 607.938 220, 606.962 215.199, 603.500 207.706 C 599.669 199.415, 599.238 196.390, 601.468 193.441 C 603.381 190.912, 603.364 190, 601.406 190 C 600.530 190, 599.577 190.900, 599.290 192 C 599.002 193.100, 598.482 193.999, 598.133 193.997 C 597.785 193.995, 596.221 190.874, 594.657 187.060 C 593.093 183.247, 591.255 179.364, 590.573 178.431 C 588.360 175.404, 584.387 179.269, 579.297 189.404 C 574.763 198.431, 569.140 206.320, 566.065 207.965 C 564.037 209.050, 554.844 206.775, 549.675 203.909 C 547.571 202.742, 543.169 201.162, 539.893 200.398 C 527.186 197.434, 516.182 188.265, 519.004 182.992 C 522.066 177.271, 540.984 167.316, 552 165.629 C 553.925 165.335, 558.550 164.602, 562.278 164.001 C 567.064 163.230, 570.719 163.216, 574.712 163.954 C 577.822 164.530, 582.535 165, 585.184 165 C 588.762 165, 590 165.379, 590 166.475 C 590 167.599, 590.774 167.803, 593.250 167.334 C 595.038 166.996, 597.031 166.303, 597.680 165.795 C 598.481 165.168, 599.245 165.614, 600.059 167.185 C 602.326 171.566, 604.174 173.101, 605.676 171.854 C 607.214 170.577, 607.179 170.553, 608.736 174 C 609.825 176.412, 609.867 176.370, 609.932 172.787 C 609.970 170.745, 610.900 166.791, 612 164 C 613.643 159.831, 614 156.568, 614 145.704 C 614 133.717, 613.819 132.368, 612.067 131.274 C 609.232 129.503, 600.383 133.526, 599.471 137 C 598.909 139.141, 598.414 138.405, 596.026 131.879 C 592.800 123.067, 589.202 116.508, 583.816 109.619 C 581.717 106.935, 579.986 104.235, 579.968 103.619 C 579.951 103.004, 579.229 101.600, 578.365 100.500 C 576.823 98.538, 576.806 98.544, 577.479 100.798 C 577.872 102.113, 577.659 103.706, 576.982 104.522 C 575.961 105.751, 575.375 105.728, 572.711 104.351 C 570.335 103.122, 569.209 103.013, 567.825 103.877 C 566.836 104.495, 565.803 105, 565.528 105 C 565.042 105, 562.099 100.862, 557.853 94.207 C 556.697 92.396, 555.566 91.101, 555.339 91.328 C 554.780 91.887, 556.975 96.870, 559.269 100.250 C 560.296 101.763, 560.744 103, 560.264 103 C 559.398 103, 553.628 99.268, 547.102 94.489 C 545.233 93.120, 542.758 92.005, 541.602 92.011 C 539.763 92.021, 539.907 92.343, 542.760 94.591 C 544.552 96.004, 545.751 97.594, 545.423 98.124 C 544.526 99.575, 547.108 102.173, 548.802 101.523 C 550.056 101.041, 550.078 101.201, 548.947 102.564 C 547.962 103.751, 546.678 104.008, 544.056 103.541 C 542.100 103.194, 539.076 102.817, 537.336 102.705 C 532.845 102.414, 532.374 101.414, 536.114 100.110 C 538.782 99.180, 539.643 99.272, 541.165 100.649 C 542.174 101.563, 543 101.860, 543 101.310 C 543 100.004, 539.663 97, 538.212 97 C 537.590 97, 535.997 95.831, 534.671 94.401 C 532.130 91.661, 528.500 91.433, 528.500 94.014 C 528.500 94.831, 527.684 95.834, 526.686 96.242 C 525.688 96.649, 525.152 97.437, 525.495 97.992 C 525.838 98.546, 525.657 99, 525.094 99 C 523.817 99, 521.494 94.927, 521.828 93.275 C 521.995 92.453, 521.100 92.609, 519.113 93.750 C 516.185 95.430, 516.059 95.402, 508.325 91.326 C 503.231 88.642, 500.548 86.644, 500.639 85.601 C 500.728 84.568, 499.983 84, 498.539 84 C 497.308 84, 494.320 82.542, 491.900 80.760 C 488.041 77.919, 487.767 77.481, 489.675 77.201 C 490.871 77.025, 493.796 77.837, 496.175 79.007 C 498.709 80.252, 503.414 81.365, 507.537 81.695 C 514.224 82.229, 514.847 82.499, 520.037 87.126 C 523.042 89.805, 525.848 91.997, 526.273 91.998 C 527.571 92.001, 523.912 87.082, 520.611 84.389 C 517.700 82.012, 517.660 81.895, 519.992 82.569 C 522.226 83.214, 522.342 83.117, 521.111 81.634 C 520.356 80.724, 517.232 79.251, 514.168 78.361 C 511.105 77.470, 505.839 75.224, 502.466 73.371 C 499.093 71.517, 495.329 70, 494.101 70 C 492.873 70, 490.886 69.525, 489.684 68.945 C 487.538 67.908, 487.534 67.917, 489.500 69.497 M 518.362 77.107 C 519.888 79.285, 528.117 85.775, 533.046 88.687 C 534.593 89.600, 536.072 91.169, 536.335 92.174 C 536.957 94.552, 538.761 94.544, 538.613 92.164 C 538.431 89.205, 520.952 75, 517.493 75 C 517.159 75, 517.551 75.948, 518.362 77.107 M 581 76.961 C 581 77.489, 581.697 78.501, 582.548 79.211 C 583.399 79.920, 584.974 81.372, 586.048 82.439 C 588.814 85.185, 588.719 82.184, 585.927 78.635 C 583.894 76.050, 581 75.066, 581 76.961 M 593.633 96.337 C 590.519 103.790, 590.499 105.644, 593.568 102.575 C 595.162 100.980, 597 96.622, 597 94.435 C 597 91.838, 595.053 92.937, 593.633 96.337 M 608.496 109.662 C 607.903 112.530, 606.313 118.243, 605.341 121 C 605.050 121.825, 605.963 121.150, 607.370 119.500 C 609.072 117.504, 609.964 117.002, 610.034 118 C 610.107 119.024, 610.413 118.865, 611 117.500 C 612.369 114.314, 612.129 109.352, 610.541 108.034 C 609.333 107.031, 608.982 107.310, 608.496 109.662 M 491.647 114.237 C 491.906 114.657, 492.766 115, 493.559 115 C 494.352 115, 495 115.450, 495 116 C 495 117.429, 498.075 117.172, 501 115.500 C 503.755 113.925, 503.313 113.761, 495.838 113.585 C 493.273 113.524, 491.387 113.818, 491.647 114.237 M 428.716 117.851 C 423.352 121.009, 421.011 123, 422.660 123 C 423.244 123, 425.246 121.966, 427.110 120.702 C 428.975 119.437, 431.288 118.102, 432.250 117.733 C 433.212 117.364, 434 116.599, 434 116.031 C 434 114.684, 434.228 114.605, 428.716 117.851 M 434.004 123.489 C 432.574 127.821, 431.885 142, 433.104 142 C 433.597 142, 434 138.877, 434 135.059 C 434 131.241, 434.450 127.840, 435 127.500 C 435.555 127.157, 436.007 127.909, 436.015 129.191 C 436.041 133.085, 437.649 134.609, 438.285 131.342 C 438.868 128.347, 437.091 120, 435.870 120 C 435.477 120, 434.637 121.570, 434.004 123.489 M 450.407 123.545 C 448.573 126.955, 448.472 127.003, 447.764 124.795 C 447.258 123.221, 447.180 123.561, 447.514 125.875 C 447.781 127.731, 448.041 130.881, 448.090 132.875 C 448.170 136.084, 448.386 135.753, 449.969 130 C 450.953 126.425, 452.086 122.713, 452.486 121.750 C 453.763 118.680, 452.384 119.871, 450.407 123.545 M 425.783 137.750 C 424.220 139.542, 422 143.446, 422 144.403 C 422 145.727, 424.987 143.615, 425.529 141.908 C 426.324 139.404, 427.700 139.481, 428.524 142.075 C 429.555 145.324, 430.203 143.599, 429.453 139.602 C 428.695 135.562, 427.999 135.211, 425.783 137.750 M 488 140 C 491.635 141.164, 498.781 141.164, 499.500 140 C 499.892 139.365, 497.450 139.036, 492.809 139.100 C 487.623 139.170, 486.226 139.432, 488 140 M 462.139 141.823 C 460.767 142.763, 461.138 142.862, 472.620 144.605 C 475.325 145.016, 476.990 144.825, 477.470 144.049 C 477.872 143.399, 478.016 142.683, 477.792 142.458 C 476.848 141.515, 463.387 140.969, 462.139 141.823 M 474.101 195.789 C 471.846 197.935, 470 200.512, 470 201.516 C 470 202.521, 469.253 204.168, 468.339 205.177 C 467.426 206.187, 467.038 207.347, 467.476 207.756 C 467.915 208.165, 468.462 207.976, 468.692 207.336 C 468.977 206.540, 470.039 206.438, 472.041 207.012 C 473.778 207.510, 475.211 207.468, 475.556 206.910 C 475.876 206.392, 476.567 206.232, 477.091 206.556 C 478.292 207.299, 483.263 196.609, 482.813 194.250 C 482.195 191.008, 478.427 191.673, 474.101 195.789 M 432.688 203.036 C 429.667 207.348, 430.990 219.410, 434.138 216.262 C 435.100 215.300, 435.085 214.527, 434.067 212.626 C 433.044 210.713, 433.023 209.460, 433.968 206.597 C 435.532 201.857, 434.847 199.952, 432.688 203.036 M 458.463 216.500 L 459.159 223 456.580 223 C 453.962 223, 453.339 224.409, 454.881 226.842 C 455.593 227.965, 456.103 227.965, 458.002 226.842 C 461.865 224.559, 465 221.003, 465 218.905 C 465 214.862, 461.343 210, 458.302 210 C 458.008 210, 458.080 212.925, 458.463 216.500 M 436.442 219.094 C 435.705 220.286, 438.565 223.350, 441.263 224.259 C 442.214 224.578, 442.177 225.065, 441.107 226.362 C 440.342 227.289, 439.940 228.273, 440.214 228.548 C 441.183 229.516, 443.809 227.838, 444.308 225.931 C 444.910 223.628, 447.267 223.411, 449 225.500 C 450.814 227.685, 452 227.338, 452 224.622 C 452 221.455, 450.452 220.390, 444.622 219.546 C 441.939 219.157, 439.172 218.620, 438.473 218.351 C 437.774 218.083, 436.860 218.417, 436.442 219.094 M 490 221.300 C 490 222.362, 489.156 223.043, 487.750 223.115 C 484.747 223.268, 492.601 224.869, 496.719 224.942 C 499.182 224.986, 499.802 224.648, 499.362 223.500 C 499.016 222.600, 497.509 222, 495.593 222 C 493.837 222, 491.860 221.460, 491.200 220.800 C 490.267 219.867, 490 219.978, 490 221.300 M 591.667 229.667 C 591.300 230.033, 591 231.781, 591 233.550 C 591 236.262, 591.432 236.852, 593.750 237.306 C 597.400 238.023, 598.065 237.175, 597.343 232.726 C 596.858 229.736, 596.304 229, 594.536 229 C 593.324 229, 592.033 229.300, 591.667 229.667 M 433 233.710 C 433 234.271, 433.850 235.811, 434.889 237.132 C 435.928 238.453, 437.480 241.214, 438.338 243.267 C 439.196 245.320, 440.558 247, 441.366 247 C 442.173 247, 443.100 247.563, 443.426 248.250 C 443.752 248.938, 443.805 247.739, 443.545 245.586 C 443.285 243.434, 442.574 241.184, 441.966 240.586 C 441.159 239.795, 441.025 240.314, 441.474 242.500 C 441.994 245.038, 441.714 244.807, 439.651 241 C 437.174 236.427, 433 231.852, 433 233.710 M 484.538 256.187 C 484.291 256.909, 484.659 260.425, 485.356 264 C 486.560 270.177, 486.661 270.337, 487.396 267.228 C 488.681 261.787, 486.070 251.698, 484.538 256.187 M 459.836 264 C 458.977 267.575, 457.932 271.400, 457.514 272.500 C 456.795 274.391, 456.839 274.386, 458.323 272.408 C 460.221 269.878, 462.337 261.914, 461.792 259.352 C 461.575 258.333, 460.695 260.425, 459.836 264 M 424 263.432 C 424 264.219, 425.413 265.870, 427.140 267.100 C 430.217 269.291, 430.310 269.297, 431.686 267.418 C 432.932 265.717, 432.847 265.302, 430.935 263.750 C 428.312 261.622, 424 261.424, 424 263.432 M 508 263.715 C 508 264.383, 508.870 265.395, 509.934 265.965 C 512.482 267.328, 512.794 267.280, 513.177 265.466 C 513.427 264.280, 514.227 264.598, 516.704 266.867 C 518.465 268.481, 520.475 269.992, 521.168 270.223 C 522.306 270.602, 527 266.081, 527 264.606 C 527 263.350, 524.927 264.073, 523 266 C 521.790 267.210, 521 267.504, 521 266.744 C 521 266.053, 519.538 264.831, 517.750 264.027 C 513.748 262.228, 508 262.044, 508 263.715 M 561.942 264.109 C 561.252 265.398, 561.259 266, 561.965 266 C 562.534 266, 563 265.499, 563 264.886 C 563 263.560, 569.812 264.378, 577.824 266.665 C 583.939 268.411, 585.295 267.850, 582.270 264.825 C 580.488 263.044, 578.781 262.667, 571.552 262.462 C 563.997 262.248, 562.831 262.448, 561.942 264.109 M 513 269.500 C 513 270.325, 513.670 271, 514.488 271 C 515.435 271, 515.890 271.818, 515.738 273.250 C 515.543 275.094, 515.940 275.451, 517.938 275.228 C 521.663 274.814, 521.663 274.205, 517.937 271.020 C 514.029 267.679, 513 267.362, 513 269.500 M 580.807 274.760 C 576.615 279.268, 575.247 282.101, 573.210 290.500 C 572.143 294.900, 570.900 299.400, 570.448 300.500 C 569.730 302.246, 569.830 302.334, 571.235 301.192 C 572.120 300.473, 573.158 297.998, 573.541 295.692 C 574.629 289.155, 578 280.868, 581.265 276.704 C 584.786 272.213, 584.460 270.831, 580.807 274.760 M 519 278.183 C 516.994 279.083, 516.836 279.386, 518.198 279.716 C 519.131 279.942, 520.706 279.709, 521.698 279.198 C 524.284 277.867, 526.426 278.782, 524.933 280.581 C 524.019 281.682, 524.298 282.163, 526.286 282.919 C 527.664 283.442, 528.950 284.343, 529.145 284.920 C 529.389 285.642, 530.671 285.610, 533.249 284.817 C 537.027 283.656, 539.589 284.400, 537.103 285.936 C 535.116 287.165, 538.579 290.258, 543.640 291.774 C 550.191 293.737, 551.683 293.434, 551.777 290.122 C 551.852 287.502, 551.501 287.196, 547.857 286.708 C 545.655 286.412, 542.175 285.007, 540.123 283.585 C 538.071 282.163, 535.613 281, 534.661 281 C 533.709 281, 531.933 280.358, 530.715 279.574 C 527.558 277.541, 521.923 276.872, 519 278.183 M 356 329.412 C 356 329.713, 358.054 331.852, 360.565 334.167 C 363.076 336.481, 365.602 339.257, 366.179 340.335 C 367.149 342.148, 366.975 342.247, 363.864 341.649 C 361.517 341.198, 360.953 341.296, 362 341.973 C 363.264 342.791, 363.107 343.223, 361 344.720 C 357.887 346.933, 349.967 351, 348.772 351 C 348.282 351, 348.160 350.550, 348.500 350 C 348.840 349.450, 348.599 349, 347.965 349 C 347.331 349, 346.588 349.858, 346.314 350.908 C 346.040 351.957, 344.864 353.064, 343.701 353.368 C 342.539 353.672, 341.845 354.179, 342.160 354.494 C 343.007 355.340, 351.408 352.305, 360.452 347.886 C 364.825 345.749, 368.442 344, 368.488 344 C 368.535 344, 370.994 348.907, 373.953 354.905 C 378.004 363.115, 379.725 365.686, 380.917 365.310 C 382.116 364.932, 382.184 365.038, 381.199 365.746 C 379.292 367.116, 381.649 372.032, 383.874 371.327 C 385.131 370.928, 385.196 371.029, 384.160 371.770 C 383.067 372.553, 383.201 373.442, 384.891 376.614 C 389.712 385.667, 398.830 399.482, 399.837 399.262 C 400.437 399.131, 400.708 399.597, 400.439 400.298 C 399.575 402.549, 417.811 427.346, 423.787 432.047 C 427.644 435.081, 429.699 434.448, 436.337 428.177 C 439.726 424.975, 447.943 417.810, 454.595 412.256 C 461.248 406.701, 469.698 398.522, 473.374 394.078 C 477.050 389.635, 480.353 386, 480.714 386 C 481.076 386, 482.413 386.978, 483.686 388.174 C 484.958 389.370, 486 389.831, 486 389.197 C 486 388.564, 484.875 387.309, 483.500 386.408 C 482.125 385.507, 481 384.479, 481 384.124 C 481 383.769, 484.625 381.306, 489.056 378.651 C 497.171 373.788, 503.637 368.415, 502.088 367.821 C 501.628 367.644, 498.552 364.091, 495.252 359.924 C 491.952 355.756, 486.669 350.131, 483.512 347.424 C 480.354 344.716, 475.343 340.363, 472.375 337.750 C 469.407 335.137, 466.341 333, 465.561 333 C 464.781 333, 463.435 332.292, 462.570 331.427 C 460.624 329.481, 457.504 329.953, 457.487 332.196 C 457.480 333.110, 457.143 334.191, 456.737 334.596 C 455.608 335.725, 455.861 341.796, 457.068 342.542 C 457.656 342.905, 457.907 343.799, 457.628 344.528 C 457.105 345.891, 459.403 348.375, 461.386 348.591 C 464.058 348.882, 466.903 350.305, 467.399 351.599 C 468.058 353.315, 465.121 353.468, 461.674 351.897 C 458.369 350.392, 455 352.228, 455 355.535 C 455 356.891, 454.791 358, 454.535 358 C 454.280 358, 452.142 356.680, 449.785 355.066 C 444.801 351.654, 443.375 352.283, 445.365 357.016 C 446.490 359.693, 446.856 359.986, 447.152 358.448 C 447.445 356.926, 450.450 359.453, 461.262 370.316 C 468.818 377.907, 475 384.611, 475 385.214 C 475 385.817, 474.177 385.565, 473.171 384.655 C 471.130 382.807, 469 382.473, 469 384 C 469 384.550, 469.659 385, 470.465 385 C 472 385, 474.001 387.935, 473.999 390.184 C 473.999 390.911, 472.780 391.571, 471.277 391.658 C 469.733 391.748, 467.590 392.938, 466.325 394.408 C 465.099 395.834, 463.512 396.990, 462.798 396.978 C 462.011 396.964, 462.304 396.275, 463.543 395.228 C 468.036 391.429, 468.439 390.181, 465.868 388.039 C 464.565 386.954, 462.583 386.052, 461.463 386.033 C 460.280 386.014, 459.343 385.266, 459.228 384.250 C 458.753 380.045, 458.251 378.584, 457.156 378.219 C 456.514 378.005, 456.221 377.451, 456.506 376.990 C 457.351 375.623, 454.805 371, 453.208 371 C 452.398 371, 450.208 370.055, 448.340 368.901 C 445.609 367.213, 444.655 367.041, 443.472 368.023 C 442.662 368.695, 442 369.884, 442 370.665 C 442 371.447, 439.955 374.272, 437.455 376.945 C 434.856 379.723, 433.417 381.972, 434.094 382.198 C 434.992 382.497, 434.966 383.453, 433.983 386.171 C 433.017 388.842, 432.114 389.750, 430.424 389.750 C 427.917 389.750, 428.100 387.559, 430.690 386.565 C 433.837 385.358, 430.171 383.248, 425.233 383.424 C 422.630 383.516, 419.072 383.018, 417.327 382.315 C 414.827 381.309, 414.048 381.299, 413.656 382.269 C 413.382 382.946, 413.122 382.488, 413.079 381.250 C 413.004 379.117, 412.563 378.830, 409 378.598 C 408.003 378.533, 407.394 377.208, 407.184 374.648 C 406.868 370.810, 406.855 370.799, 403.184 371.388 C 401.158 371.713, 398.600 372.106, 397.500 372.261 C 396.400 372.416, 394.952 371.858, 394.282 371.022 C 393.380 369.896, 393.055 369.840, 393.032 370.809 C 393.014 371.529, 392.550 371.840, 392 371.500 C 390.728 370.714, 390.727 372.152, 391.998 375.495 C 392.607 377.098, 393.447 377.842, 394.153 377.406 C 394.886 376.952, 395.037 377.131, 394.565 377.894 C 393.550 379.538, 391.386 377.676, 390.581 374.465 C 390.242 373.116, 389.466 372.122, 388.857 372.256 C 386.951 372.676, 386.793 370.193, 388.695 369.700 C 390.121 369.330, 390.028 369.208, 388.250 369.116 C 386.947 369.049, 386 368.356, 386 367.469 C 386 366.626, 385.297 365.668, 384.438 365.338 C 383.406 364.942, 382.980 363.753, 383.182 361.829 C 383.366 360.075, 382.894 358.523, 381.994 357.922 C 380.951 357.227, 381.708 357.137, 384.500 357.625 C 386.700 358.010, 389.175 358.281, 390 358.226 C 390.825 358.172, 392.624 358.360, 393.999 358.645 C 396.386 359.140, 396.413 359.225, 394.611 360.543 C 393.263 361.528, 392.192 361.638, 390.862 360.926 C 389.606 360.254, 388.352 360.277, 387.010 360.995 C 385.319 361.899, 385.205 362.356, 386.251 364.030 C 387.166 365.496, 388.586 366, 391.798 366 C 397.598 366, 410 363.902, 410 362.921 C 410 362.489, 410.900 361.849, 412 361.500 C 414.993 360.550, 414.432 359.220, 410.250 357.348 C 406.974 355.881, 402.454 355.307, 391.750 354.999 C 388.916 354.917, 388.039 353.552, 390.250 352.665 C 391.039 352.348, 390.029 350.842, 387.511 348.581 C 385.317 346.612, 383.252 345, 382.921 345 C 382.591 345, 381.805 343.867, 381.174 342.483 C 380.162 340.261, 379.790 340.114, 378.002 341.231 C 376.888 341.927, 376.178 343.022, 376.425 343.665 C 376.672 344.308, 376.163 345.107, 375.294 345.441 C 373.368 346.180, 373.432 346.257, 372.661 342.212 C 372.203 339.807, 372.432 338.772, 373.512 338.357 C 376.152 337.344, 374.088 336.155, 368.471 335.453 C 365.447 335.075, 362.721 334.358, 362.412 333.858 C 362.104 333.359, 362.391 333.074, 363.051 333.225 C 363.710 333.376, 364.438 332.991, 364.669 332.369 C 364.899 331.747, 363.830 330.939, 362.294 330.572 C 360.757 330.205, 358.712 329.671, 357.750 329.385 C 356.788 329.099, 356 329.111, 356 329.412 M 516.430 343.500 C 516.503 355.028, 514.209 365.995, 511.722 366.005 C 511.050 366.008, 509.150 367.160, 507.500 368.565 L 504.500 371.120 508.222 370.520 C 512.946 369.758, 517.411 371.960, 519.557 376.110 C 520.432 377.802, 521.262 379.032, 521.402 378.843 C 522.112 377.885, 518.819 340.825, 517.681 336.975 C 516.400 332.639, 516.361 332.842, 516.430 343.500 M 330.622 336.712 C 330.230 337.103, 330.943 338.207, 332.205 339.164 C 334.341 340.784, 334.385 341.020, 332.846 342.571 C 331.197 344.231, 328.450 343.699, 329.543 341.931 C 329.859 341.419, 329.361 341, 328.437 341 C 327.055 341, 326.977 340.732, 328 339.500 C 329.896 337.215, 327.897 337.706, 323.706 340.554 C 321.639 341.958, 320.198 343.512, 320.504 344.007 C 320.810 344.501, 319.250 345.940, 317.038 347.203 C 312.670 349.697, 311.637 351.561, 315.250 350.431 C 317.749 349.648, 323.060 345.508, 324.300 343.376 C 325.245 341.750, 327.613 341.564, 328.527 343.044 C 328.882 343.618, 328.619 344.754, 327.944 345.568 C 327.268 346.382, 327.025 347.359, 327.405 347.738 C 328.374 348.708, 340.033 348.756, 340.628 347.793 C 340.898 347.357, 340.139 347, 338.942 347 C 337.166 347, 336.854 346.545, 337.241 344.521 C 337.589 342.701, 337.088 341.633, 335.357 340.498 C 334.061 339.649, 333 338.289, 333 337.477 C 333 335.911, 331.807 335.527, 330.622 336.712 M 334.610 336.823 C 334.262 337.385, 335.336 338.135, 337.016 338.503 C 339.093 338.960, 339.962 339.694, 339.774 340.835 C 339.583 341.995, 340.335 342.596, 342.250 342.816 C 343.762 342.990, 345 342.705, 345 342.183 C 345 340.888, 348.861 339.965, 349.558 341.094 C 349.866 341.592, 349.641 342, 349.059 342 C 348.477 342, 348 342.450, 348 343 C 348 343.550, 348.800 344, 349.777 344 C 352.230 344, 356.173 341.088, 355.404 339.844 C 354.978 339.155, 354.439 339.161, 353.738 339.862 C 353.024 340.576, 351.740 340.387, 349.601 339.253 C 346.199 337.449, 346.465 337.524, 339.868 336.516 C 337.034 336.083, 334.993 336.202, 334.610 336.823 M 390.129 346.961 C 391.333 348.589, 392.696 349.688, 393.159 349.402 C 393.622 349.116, 394 349.540, 394 350.343 C 394 351.791, 399.848 354.485, 400.839 353.494 C 401.426 352.907, 397.497 349.009, 396.292 348.983 C 395.856 348.973, 394.440 347.848, 393.145 346.483 C 389.672 342.821, 387.342 343.191, 390.129 346.961 M 416.399 350.164 C 416.055 350.720, 414.924 350.952, 413.885 350.680 C 412.782 350.392, 411.556 350.876, 410.940 351.843 C 410.171 353.050, 409.741 353.160, 409.359 352.250 C 408.780 350.873, 406 350.514, 406 351.816 C 406 352.265, 407.749 353.615, 409.886 354.816 C 414.335 357.316, 419.238 357.785, 418.412 355.631 C 418.020 354.609, 418.851 354.292, 421.693 354.381 C 425.047 354.486, 425.535 354.203, 425.792 352 C 426.063 349.679, 425.760 349.488, 421.554 349.327 C 419.062 349.232, 416.742 349.608, 416.399 350.164 M 360.441 357.468 C 359.374 358.276, 357.072 358.951, 355.327 358.968 C 353.473 358.987, 350.967 359.998, 349.301 361.400 C 347.373 363.022, 344.537 364.039, 340.548 364.537 C 334.617 365.278, 322.170 370.319, 316.763 374.169 L 313.859 376.236 316.954 378.118 C 318.656 379.153, 320.712 380, 321.524 380 C 322.336 380, 323 380.450, 323 381 C 323 381.550, 323.788 382.014, 324.750 382.032 C 326.333 382.061, 326.315 382.203, 324.559 383.532 C 322.012 385.458, 322.907 385.392, 327 383.350 C 330.102 381.803, 330.387 381.809, 331.587 383.450 C 332.291 384.413, 333.381 384.882, 334.010 384.494 C 335.175 383.774, 339 387.132, 339 388.875 C 339 389.402, 338.438 390.040, 337.750 390.292 C 336.815 390.635, 336.786 391.055, 337.634 391.959 C 338.511 392.894, 339.118 392.670, 340.304 390.976 C 341.236 389.645, 342.322 389.081, 343.066 389.541 C 343.953 390.089, 344.131 389.636, 343.710 387.899 C 343.275 386.105, 343.743 385.047, 345.564 383.703 C 346.904 382.715, 348 382.378, 348 382.953 C 348 383.529, 347.460 384, 346.800 384 C 345.867 384, 345.867 384.267, 346.800 385.200 C 347.460 385.860, 348 387.265, 348 388.322 C 348 389.918, 348.255 390.033, 349.500 389 C 350.883 387.852, 351.440 388.305, 351.101 390.304 C 350.804 392.051, 353.766 393.767, 356.257 393.291 C 358.564 392.850, 358.798 393.055, 358.276 395.054 C 357.757 397.037, 357.976 397.239, 360.055 396.696 C 362.609 396.028, 366 398.286, 366 400.655 C 366 402.288, 366.520 402.327, 369.201 400.892 C 371.100 399.876, 371.217 400, 370.616 402.392 C 369.793 405.673, 370.654 405.709, 373.179 402.500 C 374.260 401.125, 376.061 400, 377.180 400 C 378.570 400, 379.033 399.529, 378.643 398.512 C 378.150 397.227, 378.500 397.198, 381.201 398.301 C 384.306 399.567, 385.232 400.646, 386.528 404.500 C 387.169 406.406, 387.243 406.389, 388.109 404.138 L 389.018 401.777 392.759 404.615 C 394.817 406.177, 398.215 409.144, 400.312 411.210 C 406.360 417.169, 404.173 412.610, 392.056 394 C 386.147 384.925, 379.846 374.800, 378.053 371.500 C 374.410 364.793, 366.425 356, 363.979 356 C 363.101 356, 361.509 356.661, 360.441 357.468 M 434 362.378 C 434 363.135, 434.648 364.293, 435.441 364.951 C 436.233 365.608, 437.020 367.351, 437.191 368.823 C 437.587 372.251, 439.184 372.260, 440.387 368.841 C 441.191 366.553, 440.915 365.823, 438.411 363.622 C 435.100 360.711, 434 360.401, 434 362.378 M 425 366.500 C 423.810 368.425, 422.172 370, 421.359 370 C 420.547 370, 420.140 370.418, 420.456 370.928 C 421.133 372.024, 417.441 373.391, 416.078 372.548 C 415.561 372.229, 414.844 372.443, 414.485 373.024 C 414.126 373.606, 412.970 373.808, 411.916 373.473 C 409.084 372.574, 409.591 374.573, 412.770 376.836 C 416.952 379.814, 424.221 380.598, 428.561 378.538 C 430.519 377.609, 432.347 376.261, 432.622 375.542 C 433.430 373.438, 430.007 363, 428.511 363 C 427.769 363, 426.190 364.575, 425 366.500 M 404.250 388.496 C 402.556 390.420, 402.679 391.061, 404.601 390.323 C 405.481 389.985, 406.582 390.324, 407.047 391.075 C 408.035 392.674, 408.499 392.321, 409.443 389.250 C 410.024 387.360, 409.764 387.006, 407.817 387.038 C 406.543 387.059, 404.938 387.715, 404.250 388.496 M 424.091 394.082 C 421.636 398.110, 421.406 400.165, 423.500 399.362 C 424.874 398.834, 425.380 397.694, 424.750 396.543 C 424.613 396.292, 425.279 395.504, 426.231 394.793 C 427.406 393.916, 427.675 393.044, 427.069 392.082 C 426.370 390.975, 425.719 391.413, 424.091 394.082 M 513.667 398.667 C 512.695 399.639, 512.851 404.790, 513.871 405.420 C 514.350 405.716, 515.067 407.430, 515.464 409.229 C 515.862 411.028, 516.407 411.938, 516.677 411.250 C 516.946 410.563, 517.804 410, 518.583 410 C 519.409 410, 519.967 409.062, 519.921 407.750 C 519.878 406.512, 519.607 406.086, 519.320 406.803 C 518.453 408.967, 516.068 404.938, 516.032 401.250 C 516.002 398.159, 515.128 397.205, 513.667 398.667 M 418.477 400.037 C 418.074 400.689, 418.216 401.515, 418.793 401.872 C 420.722 403.064, 421.161 407.406, 419.564 409.500 C 418.249 411.224, 417.902 411.293, 417.057 410 C 416.003 408.389, 412 407.706, 412 409.137 C 412 409.611, 412.675 410, 413.500 410 C 414.325 410, 415 410.512, 415 411.138 C 415 411.764, 416.800 414.229, 419 416.616 C 421.238 419.043, 423 420.304, 423 419.478 C 423 417.940, 424.188 417.521, 425.325 418.658 C 425.687 419.020, 425.511 419.885, 424.934 420.580 C 423.779 421.971, 425.479 425.586, 427.686 426.433 C 428.605 426.786, 428.673 426.271, 427.957 424.387 C 426.418 420.339, 426.796 419.325, 430.500 417.567 C 434.379 415.726, 434.528 415.321, 432.798 411.297 C 431.164 407.497, 431.243 407.553, 429.524 408.980 C 428.265 410.025, 428 409.963, 428 408.622 C 428 406.821, 426.367 406.399, 425.814 408.057 C 425.408 409.275, 422 408.235, 422 406.893 C 422 406.402, 422.627 406, 423.393 406 C 424.159 406, 425.045 405.325, 425.362 404.500 C 425.678 403.675, 425.418 403, 424.783 403 C 424.148 403, 422.635 402.066, 421.420 400.925 C 419.836 399.437, 419.003 399.185, 418.477 400.037 M 510.028 402.500 C 509.603 403.778, 509.266 405.231, 509.100 406.500 C 509.028 407.050, 508.533 406.825, 508 406 C 507.165 404.707, 507.029 404.734, 507.015 406.191 C 507.007 407.121, 507.450 408.160, 508 408.500 C 508.550 408.840, 509.014 410.329, 509.030 411.809 C 509.057 414.128, 509.202 414.257, 510.085 412.742 C 510.648 411.774, 510.941 408.849, 510.735 406.242 C 510.529 403.634, 510.211 401.950, 510.028 402.500 M 491.785 404.544 C 491.392 404.939, 491.550 406.158, 492.135 407.253 C 494.793 412.220, 492.555 430.613, 488.096 440.448 C 486.384 444.225, 485.165 447.498, 485.389 447.722 C 485.891 448.224, 490.356 438.576, 491.773 433.924 C 492.347 432.041, 493.577 426.399, 494.506 421.387 C 496.124 412.656, 496.117 412.096, 494.347 408.049 C 493.331 405.726, 492.178 404.149, 491.785 404.544 M 527.556 426.910 C 526.784 428.158, 529.065 438.048, 530.683 440.473 C 531.408 441.557, 532 443.441, 532 444.657 C 532 447.506, 533.874 452.459, 534.656 451.677 C 534.987 451.347, 534.708 448.922, 534.038 446.288 C 533.368 443.655, 532.697 438.520, 532.548 434.878 C 532.398 431.235, 531.962 427.748, 531.579 427.128 C 530.741 425.773, 528.339 425.642, 527.556 426.910 M 550.018 454.736 C 547.171 456.178, 546.385 457.276, 545.709 460.750 C 544.929 464.759, 543.850 465.674, 540.608 465.071 C 539.351 464.837, 540.740 473.981, 542.234 475.782 C 543.290 477.054, 543.553 476.926, 544.080 474.883 L 544.695 472.500 545.969 475.165 C 546.670 476.631, 548.091 478.052, 549.126 478.323 C 551.707 478.998, 550.553 481.467, 547.576 481.639 C 545.990 481.730, 545.007 481.137, 544.681 479.889 C 544.095 477.648, 542 477.344, 542 479.500 C 542 480.325, 542.450 481, 543 481 C 543.550 481, 544 481.908, 544 483.017 C 544 484.741, 544.545 484.985, 547.750 484.699 C 550.284 484.472, 552.434 485.005, 554.379 486.342 C 556.698 487.935, 557.620 488.094, 559.115 487.160 C 561.590 485.614, 563 485.696, 563 487.383 C 563 489.152, 558.091 490.119, 555.675 488.826 C 553.613 487.723, 552.451 488.303, 553.459 489.933 C 553.821 490.520, 555.126 491, 556.359 491 C 557.592 491, 559.089 491.489, 559.687 492.087 C 560.435 492.835, 560.975 492.849, 561.419 492.131 C 561.774 491.557, 562.770 491.358, 563.633 491.689 C 564.496 492.021, 565.620 491.663, 566.131 490.896 C 566.757 489.955, 566.851 490.401, 566.419 492.261 C 565.917 494.423, 566.093 494.902, 567.229 494.466 C 569.341 493.655, 571.561 496.620, 570.131 498.342 C 569.519 499.080, 569.351 500.052, 569.759 500.501 C 570.166 500.951, 569.712 501.036, 568.750 500.691 C 566.856 500.011, 566.321 501.462, 568.068 502.542 C 568.656 502.905, 568.900 503.819, 568.611 504.572 C 567.997 506.170, 570.735 509.255, 572.304 508.732 C 572.893 508.536, 573.589 507.728, 573.850 506.938 C 574.245 505.742, 574.061 505.718, 572.752 506.799 C 571.508 507.825, 571.017 507.837, 570.412 506.858 C 569.991 506.176, 570.128 505.457, 570.717 505.261 C 571.306 505.065, 571.558 504.026, 571.277 502.952 C 570.543 500.143, 572.831 500.534, 574.157 503.445 C 574.770 504.790, 575.857 506.115, 576.574 506.390 C 578.499 507.129, 578.422 491.935, 576.488 489.381 C 575.704 488.346, 575.049 486.953, 575.032 486.285 C 575.014 485.616, 573.701 483.021, 572.113 480.518 C 569.843 476.938, 569.089 476.326, 568.581 477.650 C 568.225 478.577, 568.399 479.799, 568.967 480.367 C 569.535 480.935, 570 482.462, 570 483.759 C 570 485.288, 570.406 485.867, 571.155 485.405 C 571.890 484.950, 572.037 485.132, 571.559 485.904 C 570.985 486.833, 570.305 486.771, 568.655 485.639 C 567.470 484.826, 566.607 483.690, 566.738 483.115 C 566.870 482.540, 566.549 480.945, 566.027 479.570 C 565.422 477.981, 565.427 476.854, 566.038 476.476 C 567.431 475.616, 567.224 474.367, 565.384 472.527 C 564.273 471.416, 563.955 469.974, 564.367 467.917 C 564.793 465.783, 564.540 464.761, 563.483 464.355 C 562.667 464.042, 562 462.677, 562 461.322 C 562 458.486, 560.063 456.146, 558.224 456.759 C 557.531 456.990, 556.185 456.232, 555.232 455.075 C 553.540 453.021, 553.419 453.013, 550.018 454.736 M 447.422 458.919 C 448.960 460.524, 449.916 462.327, 449.546 462.926 C 449.176 463.524, 449.689 464.326, 450.687 464.707 C 451.684 465.087, 453.372 466.209, 454.439 467.200 C 455.505 468.190, 456.967 469, 457.689 469 C 458.410 469, 459 469.477, 459 470.059 C 459 470.641, 459.399 470.871, 459.887 470.570 C 460.374 470.269, 461.358 470.726, 462.072 471.587 C 463.134 472.866, 463.135 473.299, 462.079 473.951 C 461.169 474.514, 461.114 474.952, 461.893 475.434 C 462.502 475.810, 463 475.641, 463 475.059 C 463 474.477, 464.125 474, 465.500 474 C 467.286 474, 468 474.540, 468 475.893 C 468 476.934, 468.675 478.045, 469.500 478.362 C 470.325 478.678, 471 479.428, 471 480.028 C 471 480.627, 470.492 480.804, 469.870 480.420 C 469.200 480.006, 468.918 480.255, 469.177 481.032 C 469.586 482.258, 474 483.279, 474 482.147 C 474 481.862, 473.010 480.575, 471.800 479.287 C 469.681 477.031, 469.663 476.841, 471.300 474.069 C 473.368 470.569, 473.407 470, 471.581 470 C 470.801 470, 468.888 469.373, 467.331 468.606 C 465.774 467.839, 462.279 466.230, 459.565 465.029 C 456.412 463.635, 455.071 462.574, 455.851 462.092 C 456.620 461.617, 455.624 460.904, 453.154 460.164 C 451 459.519, 448.679 458.318, 447.996 457.495 C 447.314 456.673, 446.276 456, 445.690 456 C 445.105 456, 445.884 457.313, 447.422 458.919 M 541.160 484.550 C 541.072 486.228, 541.489 488.089, 542.087 488.687 C 542.870 489.470, 542.870 489.962, 542.087 490.446 C 541.489 490.816, 541 490.641, 541 490.059 C 541 489.477, 540.498 489, 539.885 489 C 539.210 489, 539.428 490.004, 540.438 491.546 C 541.478 493.133, 541.848 494.903, 541.421 496.249 C 540.761 498.328, 540.802 498.341, 542.539 496.604 C 544.276 494.867, 544.403 494.883, 546.028 497.037 C 547.161 498.539, 547.946 498.897, 548.421 498.127 C 549.584 496.246, 548.008 493, 545.933 493 C 544.844 493, 544 492.315, 544 491.433 C 544 490.342, 544.584 490.051, 545.919 490.474 C 547.306 490.914, 548.025 490.496, 548.511 488.966 C 549.332 486.379, 548.391 485.209, 546.783 486.817 C 544.473 489.127, 542.149 488.178, 541.723 484.750 L 541.320 481.500 541.160 484.550 M 472.113 486.129 C 472.834 487.433, 473.315 488.880, 473.181 489.344 C 473.047 489.808, 473.501 490, 474.189 489.770 C 475.645 489.285, 479 495.046, 479 498.032 C 479 499.760, 479.304 499.908, 481 499 C 482.570 498.160, 482.997 496.916, 482.985 493.215 C 482.974 489.802, 482.702 488.914, 482 490 C 481.181 491.268, 481.028 491.216, 481.015 489.667 C 481.007 488.636, 480.453 488.026, 479.750 488.274 C 479.063 488.516, 477.375 487.953, 476 487.021 C 470.945 483.597, 470.677 483.536, 472.113 486.129 M 580.244 504 C 579.111 506.475, 577.951 511.414, 577.666 514.975 C 577.382 518.537, 576.665 521.612, 576.074 521.809 C 574.428 522.357, 574.798 526, 576.500 526 C 578.363 526, 578.403 526.877, 576.634 528.921 C 575.883 529.790, 574.976 531.850, 574.619 533.500 C 573.994 536.384, 574.031 536.423, 575.564 534.500 C 579.680 529.340, 582.168 522.554, 583.042 514.102 C 583.536 509.328, 583.572 504.090, 583.122 502.461 L 582.304 499.500 580.244 504 M 320.217 1005.780 C 318.411 1007.276, 314.811 1010.318, 312.217 1012.539 C 302.884 1020.531, 299.139 1022.386, 291.500 1022.799 C 286.613 1023.064, 284.123 1023.662, 283.250 1024.780 C 281.386 1027.169, 281.730 1029.668, 284.250 1032.045 C 287.165 1034.794, 293.127 1034.171, 296.862 1030.727 C 301.128 1026.791, 302.531 1026.767, 307.056 1030.546 C 309.329 1032.446, 311.996 1034, 312.982 1034 C 315.990 1034, 324.334 1027.727, 325.066 1024.915 C 325.848 1021.912, 325.024 1002.985, 324.114 1003.030 C 323.776 1003.047, 322.023 1004.284, 320.217 1005.780" stroke="none" fill="#bbbbbb" fill-rule="evenodd"/><path d="M 495 49.101 C 490.875 49.431, 484.575 50.653, 481 51.816 C 477.425 52.979, 471.808 54.450, 468.517 55.084 C 462.184 56.306, 445.896 64.271, 436.144 70.914 C 433.040 73.029, 427.841 77.626, 424.591 81.130 C 411.961 94.745, 410.722 96, 409.921 96 C 409.466 96, 408.150 97.912, 406.997 100.250 C 403.360 107.623, 401.060 111.468, 399.668 112.500 C 398.926 113.050, 397.548 115.828, 396.605 118.673 C 395.662 121.518, 394.279 124.353, 393.532 124.973 C 392.785 125.593, 391.863 128.364, 391.482 131.131 C 391.102 133.897, 389.908 139.612, 388.830 143.830 C 384.731 159.867, 383 168.556, 383 173.091 C 383 178.651, 379.537 196.577, 377.339 202.399 C 376.487 204.654, 375.658 208.300, 375.497 210.500 C 375.336 212.700, 374.925 218.325, 374.583 223 C 374.242 227.675, 373.523 233.300, 372.985 235.500 C 372.057 239.300, 371.264 249.781, 368.975 288.500 C 367.916 306.404, 365.648 322.514, 363.888 324.635 C 363.312 325.329, 361.189 326.432, 359.170 327.085 C 357.152 327.739, 353.392 329.329, 350.816 330.620 C 348.240 331.911, 342.188 333.654, 337.368 334.495 C 329.637 335.843, 327.654 336.661, 320.552 341.432 C 316.123 344.406, 306.875 349.552, 300 352.866 C 279.789 362.610, 273.072 367.616, 265.053 378.911 C 256.044 391.600, 255 393.844, 255 400.515 C 255 405.311, 254.289 407.469, 250.124 415.315 C 244.598 425.723, 239.975 437.068, 234.157 454.500 C 231.955 461.100, 227.412 474.312, 224.062 483.860 C 220.712 493.408, 216.634 506.370, 214.999 512.664 C 211.651 525.562, 209.002 547.863, 208.996 563.222 C 208.991 572.665, 208.663 574.434, 204.945 585 C 202.719 591.325, 199.971 599.425, 198.838 603 C 197.705 606.575, 196.194 610.636, 195.480 612.025 C 191.541 619.685, 188.699 650, 187.467 697.500 C 186.941 717.761, 182.757 773.790, 181.448 778.096 C 180.438 781.420, 184.116 794.063, 190.584 809.500 C 204.844 843.530, 207 849.315, 207 853.541 C 207 862.951, 211.203 876.711, 215.716 882.075 L 218.277 885.118 217.037 895.581 C 216.350 901.375, 214.950 907.798, 213.898 909.974 C 210.565 916.873, 211.734 921.525, 218.415 927.946 C 220.387 929.842, 222 931.838, 222 932.382 C 222 932.926, 222.945 934.377, 224.100 935.606 C 225.406 936.996, 226.453 939.855, 226.871 943.170 C 227.418 947.513, 227.869 948.444, 229.305 948.198 C 230.585 947.979, 231.608 949.209, 233.047 952.698 C 234.136 955.339, 236.323 960.200, 237.908 963.500 C 246.065 980.490, 246.877 985.021, 249.021 1025.500 C 249.637 1037.136, 250.813 1049.176, 251.658 1052.500 C 252.901 1057.389, 253.223 1067.200, 253.398 1105.500 C 253.591 1147.566, 253.422 1153.445, 251.791 1161.500 C 248.661 1176.951, 242.300 1198.246, 235.549 1215.872 C 229.556 1231.519, 226.218 1241.991, 223.797 1252.739 C 222.755 1257.369, 224.278 1270.425, 226.120 1272.645 C 226.693 1273.335, 229.075 1274.826, 231.413 1275.958 C 236.363 1278.354, 248.578 1278.953, 263.873 1277.548 C 272.122 1276.791, 273.357 1276.887, 274.173 1278.344 C 275.029 1279.874, 286.862 1280, 429.945 1280 L 584.790 1280 585.365 1275.750 C 586.184 1269.696, 587.009 1214.161, 587.418 1137.500 C 587.612 1101.200, 588.320 1038.200, 588.992 997.500 C 590.530 904.371, 589.521 871.729, 583.552 821.556 C 582.705 814.437, 581.805 807.912, 581.552 807.056 C 581.299 806.200, 579.919 797.400, 578.484 787.500 C 575.219 764.974, 571.079 745.009, 566.457 729.500 C 563.772 720.491, 562.891 715.730, 562.923 710.398 C 562.986 699.850, 564.774 681.291, 565.937 679.117 C 567.497 676.203, 571.845 664.402, 574.638 655.500 C 576.249 650.369, 578.196 646.424, 580.069 644.500 C 586.377 638.020, 589.931 632.745, 591.365 627.735 C 594.479 616.852, 596.034 609.953, 597.977 598.406 C 599.079 591.858, 601.447 581.100, 603.240 574.500 L 606.500 562.500 606.158 541.500 C 605.969 529.950, 606.350 513.300, 607.003 504.500 C 607.895 492.477, 607.924 480.298, 607.122 455.500 C 606.018 421.407, 604.548 408.332, 601.163 402.506 C 598.520 397.956, 596.196 391.074, 595.422 385.500 C 594.367 377.905, 593.659 376.660, 585.339 367.763 C 573.685 355.301, 558.947 347.013, 541.333 343.013 C 535.922 341.785, 534.250 340.463, 531.830 335.500 C 531.026 333.850, 529.725 331.484, 528.939 330.243 C 527.658 328.219, 527.751 327.534, 529.836 323.603 C 534.297 315.193, 536.579 313.845, 548.110 312.800 C 560.998 311.633, 568.776 307.993, 572.256 301.500 C 573.248 299.648, 573.191 299.611, 571.476 301 C 569.773 302.381, 569.691 302.341, 570.448 300.500 C 570.900 299.400, 572.148 294.900, 573.221 290.500 C 575.300 281.971, 577.322 277.925, 581.438 274.059 C 584.906 270.800, 584.674 272.361, 581 277 C 579.350 279.083, 578 281.095, 578 281.471 C 578 282.270, 581.642 277.915, 584.916 273.200 C 586.176 271.385, 587.780 267.729, 588.480 265.076 C 589.689 260.492, 589.657 260.277, 587.824 260.756 C 585.974 261.240, 585.983 261.094, 588.052 257.125 C 590.579 252.277, 592.529 250.609, 591.559 254.125 C 591.027 256.056, 591.102 256.187, 591.960 254.824 C 593.221 252.823, 595.992 238.822, 595.339 237.750 C 595.088 237.338, 593.981 237, 592.881 237 C 591.179 237, 590.926 236.438, 591.190 233.250 C 591.459 229.994, 591.862 229.458, 594.250 229.184 C 596.668 228.905, 597.004 229.207, 597.030 231.684 C 597.059 234.293, 597.144 234.353, 598.186 232.500 C 598.805 231.400, 600.855 228.769, 602.740 226.654 C 605.495 223.564, 606.038 222.286, 605.503 220.156 C 604.602 216.567, 604.430 216.488, 601.566 218.365 C 600.134 219.303, 597.030 220, 594.285 220 C 588.827 220, 576.079 222.315, 571.250 224.182 C 569.036 225.038, 568 226.098, 568 227.507 C 568 230.914, 573.062 235.738, 578.500 237.513 C 581.250 238.410, 584.288 239.857, 585.250 240.727 C 587.332 242.610, 587.551 245, 585.641 245 C 584.893 245, 580.873 246.575, 576.706 248.500 C 572.540 250.425, 568.145 252, 566.939 252 C 565.734 252, 562.091 253.350, 558.844 255 C 555.597 256.650, 552.279 258, 551.470 258 C 550.662 258, 550 258.900, 550 260 C 550 261.100, 549.663 261.904, 549.250 261.788 C 548.837 261.671, 547.378 262.195, 546.006 262.953 C 544.634 263.711, 540.292 264.538, 536.358 264.791 C 529.974 265.201, 529.089 265.036, 528.137 263.256 C 527.550 262.160, 527.300 261.034, 527.580 260.753 C 527.861 260.473, 524.695 259.925, 520.545 259.536 C 515.241 259.039, 513 258.430, 513 257.484 C 513 256.744, 511.988 255.964, 510.750 255.750 C 508.702 255.396, 508.764 255.286, 511.447 254.522 C 513.456 253.951, 514.518 254.053, 514.781 254.842 C 515.458 256.874, 518.460 256.070, 519.632 253.543 C 520.572 251.515, 520.488 251.028, 519.132 250.667 C 518.234 250.428, 519.243 250.180, 521.372 250.116 C 524.876 250.011, 525.114 249.839, 523.872 248.313 C 522.671 246.835, 522.718 246.707, 524.250 247.281 C 525.420 247.720, 526 247.450, 526 246.469 C 526 245.661, 526.810 245, 527.800 245 C 530.558 245, 531.974 243.062, 531.031 240.581 C 530.503 239.192, 530.696 237.533, 531.568 235.958 C 532.317 234.606, 532.963 232.825, 533.005 232 C 533.047 231.175, 534.424 228.929, 536.065 227.008 L 539.049 223.516 536.275 222.624 C 534.749 222.133, 532.992 221.332, 532.370 220.843 C 531.749 220.354, 528.689 220.254, 525.572 220.620 C 522.276 221.008, 518.983 220.856, 517.702 220.257 C 516.491 219.691, 513.615 218.664, 511.310 217.974 C 506.728 216.602, 500.107 210.670, 501.913 209.554 C 503.239 208.734, 503.361 206, 502.071 206 C 501.561 206, 500.468 206.675, 499.643 207.500 C 497.601 209.541, 497.104 209.405, 496 206.500 C 495.477 205.125, 494.273 204, 493.325 204 C 491.983 204, 491.867 204.267, 492.800 205.200 C 495.183 207.583, 493.912 207.891, 489.500 206 C 487.025 204.939, 484.968 204.393, 484.930 204.786 C 484.891 205.178, 484.518 204.628, 484.100 203.561 C 483.683 202.495, 483.753 199.358, 484.256 196.590 C 484.890 193.102, 484.838 191.446, 484.086 191.195 C 481.707 190.402, 483.245 186.639, 487.866 181.944 C 490.543 179.225, 493.403 177, 494.221 177 C 495.040 177, 498.051 174.525, 500.912 171.500 C 503.772 168.475, 506.512 166, 507 166 C 507.488 166, 508.684 164.650, 509.659 163 C 510.634 161.350, 511.736 160, 512.109 160 C 512.481 160, 513.045 159.325, 513.362 158.500 C 513.815 157.320, 513.079 157, 509.910 157 C 507.479 157, 506.127 157.397, 506.500 158 C 506.840 158.550, 506.206 159, 505.090 159 C 503.699 159, 503.243 158.529, 503.638 157.500 C 504.108 156.277, 503.180 156, 498.607 156 C 492.927 156, 491.133 154.734, 495.250 153.630 C 496.488 153.299, 500.200 153.005, 503.500 152.978 C 509.211 152.931, 509.379 152.860, 507 151.500 C 505.625 150.714, 503.488 150.055, 502.250 150.035 C 501.012 150.016, 500 149.550, 500 149 C 500 148.450, 500.873 148, 501.941 148 C 503.009 148, 504.129 147.601, 504.430 147.113 C 504.732 146.624, 507.234 146.437, 509.989 146.696 C 514.048 147.076, 515 146.872, 515 145.618 C 515 143.589, 511.950 142.019, 507.816 141.921 C 505.992 141.878, 505.063 141.615, 505.750 141.338 C 507.852 140.489, 507.139 139.009, 504.750 139.262 C 503.391 139.406, 502.599 139.005, 502.750 138.250 C 502.895 137.523, 501.978 137, 500.557 137 C 499.213 137, 497.498 136.121, 496.745 135.047 C 495.993 133.973, 494.168 132.634, 492.689 132.072 C 488.344 130.420, 489.878 126.195, 495.500 124.328 C 498.372 123.375, 498.266 123.307, 493 122.744 C 489.975 122.420, 485.722 121.401, 483.549 120.480 C 480.098 119.017, 479.826 118.677, 481.399 117.796 C 482.390 117.242, 484.954 116.723, 487.095 116.644 C 489.237 116.565, 490.991 116.178, 490.994 115.785 C 491.003 114.679, 487.071 112.838, 486.048 113.470 C 485.548 113.779, 484.885 113.623, 484.576 113.123 C 483.847 111.943, 488.299 110.826, 490.671 111.594 C 491.974 112.016, 491.781 111.591, 490 110.115 C 488.625 108.976, 486.938 108.034, 486.250 108.022 C 485.563 108.010, 485 107.498, 485 106.883 C 485 106.167, 485.986 106.011, 487.750 106.447 C 489.262 106.822, 491.625 107.254, 493 107.408 C 494.375 107.562, 496.089 107.758, 496.809 107.844 C 497.529 107.930, 497.863 108.413, 497.550 108.919 C 496.798 110.136, 501.314 111.022, 507.474 110.865 L 512.448 110.737 509.076 107.922 L 505.703 105.107 510.666 105.220 C 515.115 105.321, 522.034 102.762, 521.985 101.034 C 521.916 98.639, 519.563 97.764, 512.377 97.463 C 508.045 97.281, 502.531 96.427, 500.124 95.566 C 494.784 93.655, 495.335 93.610, 494.710 96 C 494.363 97.328, 494.680 98, 495.653 98 C 496.459 98, 496.846 98.441, 496.513 98.980 C 495.789 100.150, 492 98.047, 492 96.475 C 492 95.901, 490.642 94.629, 488.982 93.649 C 487.323 92.668, 486.193 91.497, 486.471 91.046 C 486.750 90.595, 484.283 88.510, 480.989 86.411 C 477.695 84.313, 475.015 82.349, 475.033 82.048 C 475.050 81.747, 476.685 80.740, 478.665 79.811 C 481.797 78.342, 482.452 78.310, 483.704 79.561 C 484.495 80.353, 485.283 81, 485.454 81 C 486.052 81, 485.458 75.491, 484.737 74.355 C 483.620 72.592, 486.349 72.050, 488.483 73.611 C 489.528 74.375, 491.273 75, 492.362 75 C 493.451 75, 495.053 75.624, 495.921 76.387 C 497.573 77.839, 507.938 80.396, 508.775 79.558 C 509.041 79.292, 507.963 78.549, 506.379 77.905 C 500.082 75.347, 491.393 71.019, 489.500 69.497 C 487.534 67.917, 487.538 67.908, 489.684 68.945 C 490.886 69.525, 492.873 70, 494.101 70 C 495.329 70, 499.093 71.517, 502.466 73.371 C 505.839 75.224, 511.105 77.470, 514.168 78.361 C 517.232 79.251, 520.356 80.724, 521.111 81.634 C 522.342 83.117, 522.226 83.214, 519.992 82.569 C 517.660 81.895, 517.700 82.012, 520.611 84.389 C 523.912 87.082, 527.571 92.001, 526.273 91.998 C 525.848 91.997, 523.042 89.805, 520.037 87.126 C 514.847 82.499, 514.224 82.229, 507.537 81.695 C 503.414 81.365, 498.709 80.252, 496.175 79.007 C 493.796 77.837, 490.871 77.025, 489.675 77.201 C 487.767 77.481, 488.041 77.919, 491.900 80.760 C 494.320 82.542, 497.308 84, 498.539 84 C 499.983 84, 500.728 84.568, 500.639 85.601 C 500.548 86.644, 503.231 88.642, 508.325 91.326 C 516.059 95.402, 516.185 95.430, 519.113 93.750 C 521.100 92.609, 521.995 92.453, 521.828 93.275 C 521.494 94.927, 523.817 99, 525.094 99 C 525.657 99, 525.838 98.546, 525.495 97.992 C 525.152 97.437, 525.688 96.649, 526.686 96.242 C 527.684 95.834, 528.500 94.831, 528.500 94.014 C 528.500 91.433, 532.130 91.661, 534.671 94.401 C 535.997 95.831, 537.668 97, 538.385 97 C 539.787 97, 543 100.122, 543 101.484 C 543 101.938, 542.174 101.563, 541.165 100.649 C 539.643 99.272, 538.782 99.180, 536.114 100.110 C 532.374 101.414, 532.845 102.414, 537.336 102.705 C 539.076 102.817, 542.100 103.194, 544.056 103.541 C 546.783 104.026, 547.948 103.759, 549.056 102.395 C 550.040 101.183, 550.088 100.864, 549.206 101.394 C 547.577 102.374, 544.740 100.120, 545.409 98.377 C 545.684 97.660, 544.467 95.937, 542.704 94.548 C 539.886 92.327, 539.753 92.021, 541.602 92.011 C 542.758 92.005, 545.233 93.120, 547.102 94.489 C 553.628 99.268, 559.398 103, 560.264 103 C 560.744 103, 560.296 101.763, 559.269 100.250 C 556.975 96.870, 554.780 91.887, 555.339 91.328 C 555.566 91.101, 556.697 92.396, 557.853 94.207 C 562.099 100.862, 565.042 105, 565.528 105 C 565.803 105, 566.836 104.495, 567.825 103.877 C 569.209 103.013, 570.335 103.122, 572.711 104.351 C 575.375 105.728, 575.961 105.751, 576.982 104.522 C 577.659 103.706, 577.872 102.113, 577.479 100.798 C 576.806 98.544, 576.823 98.538, 578.365 100.500 C 579.229 101.600, 579.951 103.004, 579.968 103.619 C 579.986 104.235, 581.717 106.935, 583.816 109.619 C 589.202 116.508, 592.800 123.067, 596.026 131.879 C 598.414 138.405, 598.909 139.141, 599.471 137 C 600.320 133.763, 609.510 129.349, 611.669 131.141 C 613.771 132.884, 614.463 131.355, 612.754 128.747 C 611.919 127.473, 611.015 124.516, 610.745 122.175 C 610.113 116.706, 609.546 116.237, 607.444 119.444 C 605.175 122.908, 604.634 122.144, 606.355 117.904 C 608.173 113.423, 609.225 106.257, 608.161 105.600 C 607.697 105.313, 606.333 106.411, 605.129 108.039 C 602.842 111.133, 598.293 112.285, 599.362 109.500 C 600.010 107.811, 599.180 107.600, 597.092 108.922 C 596.241 109.461, 594.757 109.391, 593.342 108.746 C 590.935 107.650, 589.973 105.392, 592.292 106.282 C 593.002 106.554, 594.438 106.153, 595.483 105.389 C 596.528 104.625, 598.137 104, 599.059 104 C 601.070 104, 602.538 96.120, 600.830 94.500 C 600.097 93.805, 599.994 94.223, 600.493 95.868 C 601.026 97.628, 600.862 98.121, 599.855 97.785 C 599.110 97.537, 598.479 96.129, 598.453 94.656 C 598.428 93.183, 597.576 91.196, 596.561 90.239 C 594.803 88.582, 594.748 88.590, 595.381 90.391 C 595.949 92.006, 595.820 92.095, 594.500 91 C 593.641 90.287, 593.205 88.930, 593.518 87.943 C 593.828 86.967, 593.613 85.879, 593.041 85.525 C 592.379 85.116, 592 86.519, 592 89.382 C 592 94.823, 590.441 96.271, 589.440 91.759 C 588.751 88.651, 588.671 88.603, 587.721 90.716 C 586.975 92.375, 587.134 93.555, 588.351 95.414 C 589.347 96.933, 589.594 98.133, 588.989 98.507 C 587.719 99.292, 585.801 98.131, 586.500 97 C 586.793 96.526, 585.933 94.952, 584.589 93.502 L 582.146 90.865 581.761 93.683 C 581.404 96.291, 581.306 96.348, 580.438 94.456 C 578.673 90.609, 573.501 84.046, 572.500 84.382 C 571.049 84.870, 571.658 90.011, 573.325 91.355 C 575.074 92.766, 576.127 96.803, 574.937 97.539 C 574.456 97.836, 572.655 95.587, 570.936 92.540 C 569.216 89.493, 567.333 86.706, 566.750 86.346 C 566.158 85.980, 565.982 86.163, 566.352 86.760 C 566.715 87.348, 566.541 87.986, 565.964 88.179 C 565.387 88.371, 566.509 90.771, 568.457 93.511 C 570.406 96.251, 571.982 99.395, 571.961 100.497 C 571.931 102.035, 571.611 101.803, 570.583 99.500 C 569.846 97.850, 567.804 95.150, 566.045 93.500 L 562.847 90.500 563.569 93.399 C 564.150 95.729, 564.018 96.134, 562.896 95.460 C 562.128 94.999, 560.911 93.806, 560.192 92.809 C 559.472 91.811, 556.097 89.121, 552.692 86.830 C 549.286 84.539, 545.206 81.597, 543.624 80.291 C 539.994 77.295, 539.157 78.008, 541.855 81.797 L 543.929 84.709 541.465 84.238 C 540.109 83.979, 539 83.351, 539 82.844 C 539 82.336, 537.313 80.149, 535.250 77.984 C 527.568 69.919, 524.592 65.870, 525.798 65.125 C 527.081 64.332, 518.011 57, 515.748 57 C 513.715 57, 510 54.046, 510 52.430 C 510 51.155, 510.438 51.156, 513.500 52.436 C 516.550 53.710, 517 53.712, 517 52.449 C 517 51.570, 516.016 51, 514.500 51 C 513.125 51, 512 50.593, 512 50.097 C 512 48.850, 503.988 48.381, 495 49.101 M 521 51.969 C 521 52.401, 521.696 53.333, 522.547 54.039 C 523.655 54.958, 523.767 55.526, 522.943 56.035 C 522.199 56.495, 523.110 57.768, 525.507 59.624 C 527.552 61.206, 529.736 63.122, 530.362 63.883 C 534.241 68.597, 539.146 73.188, 539.705 72.628 C 540.066 72.268, 538.705 70.456, 536.680 68.601 C 534.656 66.747, 533 64.503, 533 63.615 C 533 61.622, 533.354 61.615, 537.050 63.526 C 538.741 64.400, 540 64.614, 540 64.026 C 540 62.470, 536.245 59.044, 533.321 57.932 C 531.892 57.389, 530.982 56.685, 531.299 56.368 C 531.616 56.051, 534.315 56.985, 537.297 58.444 C 542.635 61.056, 546.668 64.570, 548.836 68.500 C 549.799 70.246, 549.943 70.017, 549.970 66.691 C 549.988 64.413, 550.402 63.130, 551 63.500 C 551.550 63.840, 552 64.844, 552 65.730 C 552 67.910, 554.896 70.977, 556.407 70.397 C 557.078 70.140, 558.455 70.845, 559.468 71.965 C 560.481 73.084, 561.676 74, 562.124 74 C 563.652 74, 561.690 70.743, 558.093 67.309 C 553.530 62.952, 556.880 64.573, 565.350 70.820 L 571.207 75.141 568.191 71.320 C 566.532 69.219, 564.996 66.600, 564.778 65.500 C 564.560 64.400, 563.845 63.613, 563.191 63.750 C 562.536 63.888, 562 63.546, 562 62.992 C 562 62.437, 560.087 61.994, 557.750 62.006 C 553.765 62.027, 549.133 61.557, 548 61.017 C 547.725 60.886, 546.487 60.861, 545.250 60.961 C 544.013 61.061, 543 60.741, 543 60.250 C 543 59.759, 540.719 58.326, 537.932 57.066 C 531.304 54.070, 521 50.969, 521 51.969 M 498 59.676 C 498 60.739, 507.215 65, 509.514 65 C 510.989 65, 511.048 64.763, 509.914 63.396 C 507.899 60.968, 498 57.878, 498 59.676 M 515.861 65.276 C 516.975 67.077, 518.535 69.802, 519.328 71.332 C 521.188 74.916, 524.162 77.111, 525.573 75.940 C 526.263 75.366, 527.863 76.295, 530.022 78.522 C 531.876 80.435, 533.754 82, 534.196 82 C 536.448 82, 534.322 78.668, 528.250 72.683 C 521.225 65.757, 518.751 63.787, 515.669 62.666 C 513.962 62.046, 513.975 62.224, 515.861 65.276 M 488.650 64.683 C 488.274 65.059, 489.437 65.996, 491.233 66.766 C 494.620 68.217, 496.096 68.600, 502 69.563 L 505.500 70.134 502.632 67.513 C 500.426 65.497, 499.121 65.034, 496.977 65.505 C 495.417 65.848, 493.902 65.651, 493.536 65.059 C 492.803 63.872, 489.699 63.634, 488.650 64.683 M 518.362 77.107 C 519.888 79.285, 528.117 85.775, 533.046 88.687 C 534.593 89.600, 536.072 91.169, 536.335 92.174 C 536.957 94.552, 538.761 94.544, 538.613 92.164 C 538.431 89.205, 520.952 75, 517.493 75 C 517.159 75, 517.551 75.948, 518.362 77.107 M 581 76.961 C 581 77.489, 581.697 78.501, 582.548 79.211 C 583.399 79.920, 584.974 81.372, 586.048 82.439 C 588.814 85.185, 588.719 82.184, 585.927 78.635 C 583.894 76.050, 581 75.066, 581 76.961 M 593.633 96.337 C 590.519 103.790, 590.499 105.644, 593.568 102.575 C 595.162 100.980, 597 96.622, 597 94.435 C 597 91.838, 595.053 92.937, 593.633 96.337 M 491.647 114.237 C 491.906 114.657, 492.766 115, 493.559 115 C 494.352 115, 495 115.450, 495 116 C 495 117.429, 498.075 117.172, 501 115.500 C 503.755 113.925, 503.313 113.761, 495.838 113.585 C 493.273 113.524, 491.387 113.818, 491.647 114.237 M 428.716 117.851 C 423.352 121.009, 421.011 123, 422.660 123 C 423.244 123, 425.246 121.966, 427.110 120.702 C 428.975 119.437, 431.288 118.102, 432.250 117.733 C 433.212 117.364, 434 116.599, 434 116.031 C 434 114.684, 434.228 114.605, 428.716 117.851 M 434.004 123.489 C 432.574 127.821, 431.885 142, 433.104 142 C 433.597 142, 434 138.877, 434 135.059 C 434 131.241, 434.450 127.840, 435 127.500 C 435.555 127.157, 436.007 127.909, 436.015 129.191 C 436.041 133.085, 437.649 134.609, 438.285 131.342 C 438.868 128.347, 437.091 120, 435.870 120 C 435.477 120, 434.637 121.570, 434.004 123.489 M 450.407 123.545 C 448.573 126.955, 448.472 127.003, 447.764 124.795 C 447.258 123.221, 447.180 123.561, 447.514 125.875 C 447.781 127.731, 448.041 130.881, 448.090 132.875 C 448.170 136.084, 448.386 135.753, 449.969 130 C 450.953 126.425, 452.086 122.713, 452.486 121.750 C 453.763 118.680, 452.384 119.871, 450.407 123.545 M 425.783 137.750 C 424.220 139.542, 422 143.446, 422 144.403 C 422 145.727, 424.987 143.615, 425.529 141.908 C 426.324 139.404, 427.700 139.481, 428.524 142.075 C 429.555 145.324, 430.203 143.599, 429.453 139.602 C 428.695 135.562, 427.999 135.211, 425.783 137.750 M 488 140 C 491.635 141.164, 498.781 141.164, 499.500 140 C 499.892 139.365, 497.450 139.036, 492.809 139.100 C 487.623 139.170, 486.226 139.432, 488 140 M 462.139 141.823 C 460.767 142.763, 461.138 142.862, 472.620 144.605 C 475.325 145.016, 476.990 144.825, 477.470 144.049 C 477.872 143.399, 478.016 142.683, 477.792 142.458 C 476.848 141.515, 463.387 140.969, 462.139 141.823 M 561 164.053 C 558.525 164.541, 554.700 165.215, 552.500 165.552 C 541.020 167.311, 522.134 177.145, 519.004 182.992 C 516.182 188.265, 527.186 197.434, 539.893 200.398 C 543.169 201.162, 547.571 202.742, 549.675 203.909 C 554.844 206.775, 564.037 209.050, 566.065 207.965 C 569.140 206.320, 574.763 198.431, 579.297 189.404 C 584.387 179.269, 588.360 175.404, 590.573 178.431 C 591.255 179.364, 593.093 183.247, 594.657 187.060 C 596.221 190.874, 597.785 193.995, 598.133 193.997 C 598.482 193.999, 599.002 193.100, 599.290 192 C 599.595 190.832, 600.654 190, 601.834 190 C 606.451 190, 610.860 180.020, 608.781 174.272 C 607.558 170.889, 606.589 170.238, 605.470 172.049 C 604.607 173.444, 602.318 171.515, 600.372 167.752 C 599.337 165.751, 598.509 165.145, 597.688 165.789 C 595.514 167.491, 590 168.086, 590 166.618 C 590 165.678, 587.721 165.099, 582.250 164.652 C 577.987 164.303, 572.475 163.826, 570 163.592 C 567.525 163.358, 563.475 163.566, 561 164.053 M 474.101 195.789 C 471.846 197.935, 470 200.512, 470 201.516 C 470 202.521, 469.253 204.168, 468.339 205.177 C 467.426 206.187, 467.038 207.347, 467.476 207.756 C 467.915 208.165, 468.462 207.976, 468.692 207.336 C 468.977 206.540, 470.039 206.438, 472.041 207.012 C 473.778 207.510, 475.211 207.468, 475.556 206.910 C 475.876 206.392, 476.567 206.232, 477.091 206.556 C 478.292 207.299, 483.263 196.609, 482.813 194.250 C 482.195 191.008, 478.427 191.673, 474.101 195.789 M 432.688 203.036 C 429.667 207.348, 430.990 219.410, 434.138 216.262 C 435.100 215.300, 435.085 214.527, 434.067 212.626 C 433.044 210.713, 433.023 209.460, 433.968 206.597 C 435.532 201.857, 434.847 199.952, 432.688 203.036 M 458.463 216.500 L 459.159 223 456.580 223 C 453.962 223, 453.339 224.409, 454.881 226.842 C 455.593 227.965, 456.103 227.965, 458.002 226.842 C 461.865 224.559, 465 221.003, 465 218.905 C 465 214.862, 461.343 210, 458.302 210 C 458.008 210, 458.080 212.925, 458.463 216.500 M 436.442 219.094 C 435.705 220.286, 438.565 223.350, 441.263 224.259 C 442.214 224.578, 442.177 225.065, 441.107 226.362 C 440.342 227.289, 439.940 228.273, 440.214 228.548 C 441.183 229.516, 443.809 227.838, 444.308 225.931 C 444.910 223.628, 447.267 223.411, 449 225.500 C 450.814 227.685, 452 227.338, 452 224.622 C 452 221.455, 450.452 220.390, 444.622 219.546 C 441.939 219.157, 439.172 218.620, 438.473 218.351 C 437.774 218.083, 436.860 218.417, 436.442 219.094 M 490 221.300 C 490 222.362, 489.156 223.043, 487.750 223.115 C 484.747 223.268, 492.601 224.869, 496.719 224.942 C 499.182 224.986, 499.802 224.648, 499.362 223.500 C 499.016 222.600, 497.509 222, 495.593 222 C 493.837 222, 491.860 221.460, 491.200 220.800 C 490.267 219.867, 490 219.978, 490 221.300 M 433 233.710 C 433 234.271, 433.850 235.811, 434.889 237.132 C 435.928 238.453, 437.480 241.214, 438.338 243.267 C 439.196 245.320, 440.558 247, 441.366 247 C 442.173 247, 443.100 247.563, 443.426 248.250 C 443.752 248.938, 443.805 247.739, 443.545 245.586 C 443.285 243.434, 442.574 241.184, 441.966 240.586 C 441.159 239.795, 441.025 240.314, 441.474 242.500 C 441.994 245.038, 441.714 244.807, 439.651 241 C 437.174 236.427, 433 231.852, 433 233.710 M 484.538 256.187 C 484.291 256.909, 484.659 260.425, 485.356 264 C 486.560 270.177, 486.661 270.337, 487.396 267.228 C 488.681 261.787, 486.070 251.698, 484.538 256.187 M 459.836 264 C 458.977 267.575, 457.932 271.400, 457.514 272.500 C 456.795 274.391, 456.839 274.386, 458.323 272.408 C 460.221 269.878, 462.337 261.914, 461.792 259.352 C 461.575 258.333, 460.695 260.425, 459.836 264 M 424 263.432 C 424 264.219, 425.413 265.870, 427.140 267.100 C 430.217 269.291, 430.310 269.297, 431.686 267.418 C 432.932 265.717, 432.847 265.302, 430.935 263.750 C 428.312 261.622, 424 261.424, 424 263.432 M 508 263.715 C 508 264.383, 508.870 265.395, 509.934 265.965 C 512.482 267.328, 512.794 267.280, 513.177 265.466 C 513.427 264.280, 514.227 264.598, 516.704 266.867 C 518.465 268.481, 520.475 269.992, 521.168 270.223 C 522.306 270.602, 527 266.081, 527 264.606 C 527 263.350, 524.927 264.073, 523 266 C 521.790 267.210, 521 267.504, 521 266.744 C 521 266.053, 519.538 264.831, 517.750 264.027 C 513.748 262.228, 508 262.044, 508 263.715 M 561.942 264.109 C 561.252 265.398, 561.259 266, 561.965 266 C 562.534 266, 563 265.499, 563 264.886 C 563 263.560, 569.812 264.378, 577.824 266.665 C 583.939 268.411, 585.295 267.850, 582.270 264.825 C 580.488 263.044, 578.781 262.667, 571.552 262.462 C 563.997 262.248, 562.831 262.448, 561.942 264.109 M 513 269.500 C 513 270.325, 513.670 271, 514.488 271 C 515.435 271, 515.890 271.818, 515.738 273.250 C 515.543 275.094, 515.940 275.451, 517.938 275.228 C 521.663 274.814, 521.663 274.205, 517.937 271.020 C 514.029 267.679, 513 267.362, 513 269.500 M 519 278.183 C 516.994 279.083, 516.836 279.386, 518.198 279.716 C 519.131 279.942, 520.706 279.709, 521.698 279.198 C 524.284 277.867, 526.426 278.782, 524.933 280.581 C 524.019 281.682, 524.298 282.163, 526.286 282.919 C 527.664 283.442, 528.950 284.343, 529.145 284.920 C 529.389 285.642, 530.671 285.610, 533.249 284.817 C 537.027 283.656, 539.589 284.400, 537.103 285.936 C 535.116 287.165, 538.579 290.258, 543.640 291.774 C 550.191 293.737, 551.683 293.434, 551.777 290.122 C 551.852 287.502, 551.501 287.196, 547.857 286.708 C 545.655 286.412, 542.175 285.007, 540.123 283.585 C 538.071 282.163, 535.613 281, 534.661 281 C 533.709 281, 531.933 280.358, 530.715 279.574 C 527.558 277.541, 521.923 276.872, 519 278.183 M 356 329.412 C 356 329.713, 358.054 331.852, 360.565 334.167 C 363.076 336.481, 365.602 339.257, 366.179 340.335 C 367.149 342.148, 366.975 342.247, 363.864 341.649 C 361.517 341.198, 360.953 341.296, 362 341.973 C 363.264 342.791, 363.107 343.223, 361 344.720 C 357.887 346.933, 349.967 351, 348.772 351 C 348.282 351, 348.160 350.550, 348.500 350 C 348.840 349.450, 348.599 349, 347.965 349 C 347.331 349, 346.588 349.858, 346.314 350.908 C 346.040 351.957, 344.864 353.064, 343.701 353.368 C 342.539 353.672, 341.845 354.179, 342.160 354.494 C 343.007 355.340, 351.408 352.305, 360.452 347.886 C 364.825 345.749, 368.442 344, 368.488 344 C 368.535 344, 370.994 348.907, 373.953 354.905 C 378.004 363.115, 379.725 365.686, 380.917 365.310 C 382.116 364.932, 382.184 365.038, 381.199 365.746 C 379.292 367.116, 381.649 372.032, 383.874 371.327 C 385.131 370.928, 385.196 371.029, 384.160 371.770 C 383.067 372.553, 383.201 373.442, 384.891 376.614 C 389.712 385.667, 398.830 399.482, 399.837 399.262 C 400.437 399.131, 400.708 399.597, 400.439 400.298 C 399.575 402.549, 417.811 427.346, 423.787 432.047 C 427.644 435.081, 429.699 434.448, 436.337 428.177 C 439.726 424.975, 447.943 417.810, 454.595 412.256 C 461.248 406.701, 469.698 398.522, 473.374 394.078 C 477.050 389.635, 480.353 386, 480.714 386 C 481.076 386, 482.413 386.978, 483.686 388.174 C 484.958 389.370, 486 389.831, 486 389.197 C 486 388.564, 484.875 387.309, 483.500 386.408 C 482.125 385.507, 481 384.479, 481 384.124 C 481 383.769, 484.625 381.306, 489.056 378.651 C 497.171 373.788, 503.637 368.415, 502.088 367.821 C 501.628 367.644, 498.552 364.091, 495.252 359.924 C 491.952 355.756, 486.669 350.131, 483.512 347.424 C 480.354 344.716, 475.343 340.363, 472.375 337.750 C 469.407 335.137, 466.341 333, 465.561 333 C 464.781 333, 463.435 332.292, 462.570 331.427 C 460.624 329.481, 457.504 329.953, 457.487 332.196 C 457.480 333.110, 457.143 334.191, 456.737 334.596 C 455.608 335.725, 455.861 341.796, 457.068 342.542 C 457.656 342.905, 457.907 343.799, 457.628 344.528 C 457.105 345.891, 459.403 348.375, 461.386 348.591 C 464.058 348.882, 466.903 350.305, 467.399 351.599 C 468.058 353.315, 465.121 353.468, 461.674 351.897 C 458.369 350.392, 455 352.228, 455 355.535 C 455 356.891, 454.791 358, 454.535 358 C 454.280 358, 452.142 356.680, 449.785 355.066 C 444.801 351.654, 443.375 352.283, 445.365 357.016 C 446.490 359.693, 446.856 359.986, 447.152 358.448 C 447.445 356.926, 450.450 359.453, 461.262 370.316 C 468.818 377.907, 475 384.611, 475 385.214 C 475 385.817, 474.177 385.565, 473.171 384.655 C 471.130 382.807, 469 382.473, 469 384 C 469 384.550, 469.659 385, 470.465 385 C 472 385, 474.001 387.935, 473.999 390.184 C 473.999 390.911, 472.780 391.571, 471.277 391.658 C 469.733 391.748, 467.590 392.938, 466.325 394.408 C 465.099 395.834, 463.512 396.990, 462.798 396.978 C 462.011 396.964, 462.304 396.275, 463.543 395.228 C 468.036 391.429, 468.439 390.181, 465.868 388.039 C 464.565 386.954, 462.583 386.052, 461.463 386.033 C 460.280 386.014, 459.343 385.266, 459.228 384.250 C 458.753 380.045, 458.251 378.584, 457.156 378.219 C 456.514 378.005, 456.221 377.451, 456.506 376.990 C 457.351 375.623, 454.805 371, 453.208 371 C 452.398 371, 450.208 370.055, 448.340 368.901 C 445.609 367.213, 444.655 367.041, 443.472 368.023 C 442.662 368.695, 442 369.884, 442 370.665 C 442 371.447, 439.955 374.272, 437.455 376.945 C 434.856 379.723, 433.417 381.972, 434.094 382.198 C 434.992 382.497, 434.966 383.453, 433.983 386.171 C 433.017 388.842, 432.114 389.750, 430.424 389.750 C 427.917 389.750, 428.100 387.559, 430.690 386.565 C 433.837 385.358, 430.171 383.248, 425.233 383.424 C 422.630 383.516, 419.072 383.018, 417.327 382.315 C 414.827 381.309, 414.048 381.299, 413.656 382.269 C 413.382 382.946, 413.122 382.488, 413.079 381.250 C 413.004 379.117, 412.563 378.830, 409 378.598 C 408.003 378.533, 407.394 377.208, 407.184 374.648 C 406.868 370.810, 406.855 370.799, 403.184 371.388 C 401.158 371.713, 398.600 372.106, 397.500 372.261 C 396.400 372.416, 394.952 371.858, 394.282 371.022 C 393.380 369.896, 393.055 369.840, 393.032 370.809 C 393.014 371.529, 392.550 371.840, 392 371.500 C 390.728 370.714, 390.727 372.152, 391.998 375.495 C 392.607 377.098, 393.447 377.842, 394.153 377.406 C 394.886 376.952, 395.037 377.131, 394.565 377.894 C 393.550 379.538, 391.386 377.676, 390.581 374.465 C 390.242 373.116, 389.466 372.122, 388.857 372.256 C 386.951 372.676, 386.793 370.193, 388.695 369.700 C 390.121 369.330, 390.028 369.208, 388.250 369.116 C 386.947 369.049, 386 368.356, 386 367.469 C 386 366.626, 385.297 365.668, 384.438 365.338 C 383.406 364.942, 382.980 363.753, 383.182 361.829 C 383.366 360.075, 382.894 358.523, 381.994 357.922 C 380.951 357.227, 381.708 357.137, 384.500 357.625 C 386.700 358.010, 389.175 358.281, 390 358.226 C 390.825 358.172, 392.624 358.360, 393.999 358.645 C 396.386 359.140, 396.413 359.225, 394.611 360.543 C 393.263 361.528, 392.192 361.638, 390.862 360.926 C 389.606 360.254, 388.352 360.277, 387.010 360.995 C 385.319 361.899, 385.205 362.356, 386.251 364.030 C 387.166 365.496, 388.586 366, 391.798 366 C 397.598 366, 410 363.902, 410 362.921 C 410 362.489, 410.900 361.849, 412 361.500 C 414.993 360.550, 414.432 359.220, 410.250 357.348 C 406.974 355.881, 402.454 355.307, 391.750 354.999 C 388.916 354.917, 388.039 353.552, 390.250 352.665 C 391.039 352.348, 390.029 350.842, 387.511 348.581 C 385.317 346.612, 383.252 345, 382.921 345 C 382.591 345, 381.805 343.867, 381.174 342.483 C 380.162 340.261, 379.790 340.114, 378.002 341.231 C 376.888 341.927, 376.178 343.022, 376.425 343.665 C 376.672 344.308, 376.163 345.107, 375.294 345.441 C 373.368 346.180, 373.432 346.257, 372.661 342.212 C 372.203 339.807, 372.432 338.772, 373.512 338.357 C 376.152 337.344, 374.088 336.155, 368.471 335.453 C 365.447 335.075, 362.721 334.358, 362.412 333.858 C 362.104 333.359, 362.391 333.074, 363.051 333.225 C 363.710 333.376, 364.438 332.991, 364.669 332.369 C 364.899 331.747, 363.830 330.939, 362.294 330.572 C 360.757 330.205, 358.712 329.671, 357.750 329.385 C 356.788 329.099, 356 329.111, 356 329.412 M 516.430 343.500 C 516.503 355.028, 514.209 365.995, 511.722 366.005 C 511.050 366.008, 509.150 367.160, 507.500 368.565 L 504.500 371.120 508.222 370.520 C 512.946 369.758, 517.411 371.960, 519.557 376.110 C 520.432 377.802, 521.262 379.032, 521.402 378.843 C 522.112 377.885, 518.819 340.825, 517.681 336.975 C 516.400 332.639, 516.361 332.842, 516.430 343.500 M 330.622 336.712 C 330.230 337.103, 330.943 338.207, 332.205 339.164 C 334.341 340.784, 334.385 341.020, 332.846 342.571 C 331.197 344.231, 328.450 343.699, 329.543 341.931 C 329.859 341.419, 329.361 341, 328.437 341 C 327.055 341, 326.977 340.732, 328 339.500 C 329.896 337.215, 327.897 337.706, 323.706 340.554 C 321.639 341.958, 320.198 343.512, 320.504 344.007 C 320.810 344.501, 319.250 345.940, 317.038 347.203 C 312.670 349.697, 311.637 351.561, 315.250 350.431 C 317.749 349.648, 323.060 345.508, 324.300 343.376 C 325.245 341.750, 327.613 341.564, 328.527 343.044 C 328.882 343.618, 328.619 344.754, 327.944 345.568 C 327.268 346.382, 327.025 347.359, 327.405 347.738 C 328.374 348.708, 340.033 348.756, 340.628 347.793 C 340.898 347.357, 340.139 347, 338.942 347 C 337.166 347, 336.854 346.545, 337.241 344.521 C 337.589 342.701, 337.088 341.633, 335.357 340.498 C 334.061 339.649, 333 338.289, 333 337.477 C 333 335.911, 331.807 335.527, 330.622 336.712 M 334.610 336.823 C 334.262 337.385, 335.336 338.135, 337.016 338.503 C 339.093 338.960, 339.962 339.694, 339.774 340.835 C 339.583 341.995, 340.335 342.596, 342.250 342.816 C 343.762 342.990, 345 342.705, 345 342.183 C 345 340.888, 348.861 339.965, 349.558 341.094 C 349.866 341.592, 349.641 342, 349.059 342 C 348.477 342, 348 342.450, 348 343 C 348 343.550, 348.800 344, 349.777 344 C 352.230 344, 356.173 341.088, 355.404 339.844 C 354.978 339.155, 354.439 339.161, 353.738 339.862 C 353.024 340.576, 351.740 340.387, 349.601 339.253 C 346.199 337.449, 346.465 337.524, 339.868 336.516 C 337.034 336.083, 334.993 336.202, 334.610 336.823 M 390.129 346.961 C 391.333 348.589, 392.696 349.688, 393.159 349.402 C 393.622 349.116, 394 349.540, 394 350.343 C 394 351.791, 399.848 354.485, 400.839 353.494 C 401.426 352.907, 397.497 349.009, 396.292 348.983 C 395.856 348.973, 394.440 347.848, 393.145 346.483 C 389.672 342.821, 387.342 343.191, 390.129 346.961 M 416.399 350.164 C 416.055 350.720, 414.924 350.952, 413.885 350.680 C 412.782 350.392, 411.556 350.876, 410.940 351.843 C 410.171 353.050, 409.741 353.160, 409.359 352.250 C 408.780 350.873, 406 350.514, 406 351.816 C 406 352.265, 407.749 353.615, 409.886 354.816 C 414.335 357.316, 419.238 357.785, 418.412 355.631 C 418.020 354.609, 418.851 354.292, 421.693 354.381 C 425.047 354.486, 425.535 354.203, 425.792 352 C 426.063 349.679, 425.760 349.488, 421.554 349.327 C 419.062 349.232, 416.742 349.608, 416.399 350.164 M 360.441 357.468 C 359.374 358.276, 357.072 358.951, 355.327 358.968 C 353.473 358.987, 350.967 359.998, 349.301 361.400 C 347.373 363.022, 344.537 364.039, 340.548 364.537 C 334.617 365.278, 322.170 370.319, 316.763 374.169 L 313.859 376.236 316.954 378.118 C 318.656 379.153, 320.712 380, 321.524 380 C 322.336 380, 323 380.450, 323 381 C 323 381.550, 323.788 382.014, 324.750 382.032 C 326.333 382.061, 326.315 382.203, 324.559 383.532 C 322.012 385.458, 322.907 385.392, 327 383.350 C 330.102 381.803, 330.387 381.809, 331.587 383.450 C 332.291 384.413, 333.381 384.882, 334.010 384.494 C 335.175 383.774, 339 387.132, 339 388.875 C 339 389.402, 338.438 390.040, 337.750 390.292 C 336.815 390.635, 336.786 391.055, 337.634 391.959 C 338.511 392.894, 339.118 392.670, 340.304 390.976 C 341.236 389.645, 342.322 389.081, 343.066 389.541 C 343.953 390.089, 344.131 389.636, 343.710 387.899 C 343.275 386.105, 343.743 385.047, 345.564 383.703 C 346.904 382.715, 348 382.378, 348 382.953 C 348 383.529, 347.460 384, 346.800 384 C 345.867 384, 345.867 384.267, 346.800 385.200 C 347.460 385.860, 348 387.265, 348 388.322 C 348 389.918, 348.255 390.033, 349.500 389 C 350.883 387.852, 351.440 388.305, 351.101 390.304 C 350.804 392.051, 353.766 393.767, 356.257 393.291 C 358.564 392.850, 358.798 393.055, 358.276 395.054 C 357.757 397.037, 357.976 397.239, 360.055 396.696 C 362.609 396.028, 366 398.286, 366 400.655 C 366 402.288, 366.520 402.327, 369.201 400.892 C 371.100 399.876, 371.217 400, 370.616 402.392 C 369.793 405.673, 370.654 405.709, 373.179 402.500 C 374.260 401.125, 376.061 400, 377.180 400 C 378.570 400, 379.033 399.529, 378.643 398.512 C 378.150 397.227, 378.500 397.198, 381.201 398.301 C 384.306 399.567, 385.232 400.646, 386.528 404.500 C 387.169 406.406, 387.243 406.389, 388.109 404.138 L 389.018 401.777 392.759 404.615 C 394.817 406.177, 398.215 409.144, 400.312 411.210 C 406.360 417.169, 404.173 412.610, 392.056 394 C 386.147 384.925, 379.846 374.800, 378.053 371.500 C 374.410 364.793, 366.425 356, 363.979 356 C 363.101 356, 361.509 356.661, 360.441 357.468 M 434 362.378 C 434 363.135, 434.648 364.293, 435.441 364.951 C 436.233 365.608, 437.020 367.351, 437.191 368.823 C 437.587 372.251, 439.184 372.260, 440.387 368.841 C 441.191 366.553, 440.915 365.823, 438.411 363.622 C 435.100 360.711, 434 360.401, 434 362.378 M 425 366.500 C 423.810 368.425, 422.172 370, 421.359 370 C 420.547 370, 420.140 370.418, 420.456 370.928 C 421.133 372.024, 417.441 373.391, 416.078 372.548 C 415.561 372.229, 414.844 372.443, 414.485 373.024 C 414.126 373.606, 412.970 373.808, 411.916 373.473 C 409.084 372.574, 409.591 374.573, 412.770 376.836 C 416.952 379.814, 424.221 380.598, 428.561 378.538 C 430.519 377.609, 432.347 376.261, 432.622 375.542 C 433.430 373.438, 430.007 363, 428.511 363 C 427.769 363, 426.190 364.575, 425 366.500 M 404.250 388.496 C 402.556 390.420, 402.679 391.061, 404.601 390.323 C 405.481 389.985, 406.582 390.324, 407.047 391.075 C 408.035 392.674, 408.499 392.321, 409.443 389.250 C 410.024 387.360, 409.764 387.006, 407.817 387.038 C 406.543 387.059, 404.938 387.715, 404.250 388.496 M 424.091 394.082 C 421.636 398.110, 421.406 400.165, 423.500 399.362 C 424.874 398.834, 425.380 397.694, 424.750 396.543 C 424.613 396.292, 425.279 395.504, 426.231 394.793 C 427.406 393.916, 427.675 393.044, 427.069 392.082 C 426.370 390.975, 425.719 391.413, 424.091 394.082 M 513.667 398.667 C 512.695 399.639, 512.851 404.790, 513.871 405.420 C 514.350 405.716, 515.067 407.430, 515.464 409.229 C 515.862 411.028, 516.407 411.938, 516.677 411.250 C 516.946 410.563, 517.804 410, 518.583 410 C 519.409 410, 519.967 409.062, 519.921 407.750 C 519.878 406.512, 519.607 406.086, 519.320 406.803 C 518.453 408.967, 516.068 404.938, 516.032 401.250 C 516.002 398.159, 515.128 397.205, 513.667 398.667 M 418.477 400.037 C 418.074 400.689, 418.216 401.515, 418.793 401.872 C 420.722 403.064, 421.161 407.406, 419.564 409.500 C 418.249 411.224, 417.902 411.293, 417.057 410 C 416.003 408.389, 412 407.706, 412 409.137 C 412 409.611, 412.675 410, 413.500 410 C 414.325 410, 415 410.512, 415 411.138 C 415 411.764, 416.800 414.229, 419 416.616 C 421.238 419.043, 423 420.304, 423 419.478 C 423 417.940, 424.188 417.521, 425.325 418.658 C 425.687 419.020, 425.511 419.885, 424.934 420.580 C 423.779 421.971, 425.479 425.586, 427.686 426.433 C 428.605 426.786, 428.673 426.271, 427.957 424.387 C 426.418 420.339, 426.796 419.325, 430.500 417.567 C 434.379 415.726, 434.528 415.321, 432.798 411.297 C 431.164 407.497, 431.243 407.553, 429.524 408.980 C 428.265 410.025, 428 409.963, 428 408.622 C 428 406.821, 426.367 406.399, 425.814 408.057 C 425.408 409.275, 422 408.235, 422 406.893 C 422 406.402, 422.627 406, 423.393 406 C 424.159 406, 425.045 405.325, 425.362 404.500 C 425.678 403.675, 425.418 403, 424.783 403 C 424.148 403, 422.635 402.066, 421.420 400.925 C 419.836 399.437, 419.003 399.185, 418.477 400.037 M 510.028 402.500 C 509.603 403.778, 509.266 405.231, 509.100 406.500 C 509.028 407.050, 508.533 406.825, 508 406 C 507.165 404.707, 507.029 404.734, 507.015 406.191 C 507.007 407.121, 507.450 408.160, 508 408.500 C 508.550 408.840, 509.014 410.329, 509.030 411.809 C 509.057 414.128, 509.202 414.257, 510.085 412.742 C 510.648 411.774, 510.941 408.849, 510.735 406.242 C 510.529 403.634, 510.211 401.950, 510.028 402.500 M 491.785 404.544 C 491.392 404.939, 491.550 406.158, 492.135 407.253 C 494.793 412.220, 492.555 430.613, 488.096 440.448 C 486.384 444.225, 485.165 447.498, 485.389 447.722 C 485.891 448.224, 490.356 438.576, 491.773 433.924 C 492.347 432.041, 493.577 426.399, 494.506 421.387 C 496.124 412.656, 496.117 412.096, 494.347 408.049 C 493.331 405.726, 492.178 404.149, 491.785 404.544 M 527.556 426.910 C 526.784 428.158, 529.065 438.048, 530.683 440.473 C 531.408 441.557, 532 443.441, 532 444.657 C 532 447.506, 533.874 452.459, 534.656 451.677 C 534.987 451.347, 534.708 448.922, 534.038 446.288 C 533.368 443.655, 532.697 438.520, 532.548 434.878 C 532.398 431.235, 531.962 427.748, 531.579 427.128 C 530.741 425.773, 528.339 425.642, 527.556 426.910 M 550.018 454.736 C 547.171 456.178, 546.385 457.276, 545.709 460.750 C 544.929 464.759, 543.850 465.674, 540.608 465.071 C 539.351 464.837, 540.740 473.981, 542.234 475.782 C 543.290 477.054, 543.553 476.926, 544.080 474.883 L 544.695 472.500 545.969 475.165 C 546.670 476.631, 548.091 478.052, 549.126 478.323 C 551.707 478.998, 550.553 481.467, 547.576 481.639 C 545.990 481.730, 545.007 481.137, 544.681 479.889 C 544.095 477.648, 542 477.344, 542 479.500 C 542 480.325, 542.450 481, 543 481 C 543.550 481, 544 481.908, 544 483.017 C 544 484.741, 544.545 484.985, 547.750 484.699 C 550.284 484.472, 552.434 485.005, 554.379 486.342 C 556.698 487.935, 557.620 488.094, 559.115 487.160 C 561.590 485.614, 563 485.696, 563 487.383 C 563 489.152, 558.091 490.119, 555.675 488.826 C 553.613 487.723, 552.451 488.303, 553.459 489.933 C 553.821 490.520, 555.126 491, 556.359 491 C 557.592 491, 559.089 491.489, 559.687 492.087 C 560.435 492.835, 560.975 492.849, 561.419 492.131 C 561.774 491.557, 562.770 491.358, 563.633 491.689 C 564.496 492.021, 565.620 491.663, 566.131 490.896 C 566.757 489.955, 566.851 490.401, 566.419 492.261 C 565.917 494.423, 566.093 494.902, 567.229 494.466 C 569.341 493.655, 571.561 496.620, 570.131 498.342 C 569.519 499.080, 569.351 500.052, 569.759 500.501 C 570.166 500.951, 569.712 501.036, 568.750 500.691 C 566.856 500.011, 566.321 501.462, 568.068 502.542 C 568.656 502.905, 568.900 503.819, 568.611 504.572 C 567.997 506.170, 570.735 509.255, 572.304 508.732 C 572.893 508.536, 573.589 507.728, 573.850 506.938 C 574.245 505.742, 574.061 505.718, 572.752 506.799 C 571.508 507.825, 571.017 507.837, 570.412 506.858 C 569.991 506.176, 570.128 505.457, 570.717 505.261 C 571.306 505.065, 571.558 504.026, 571.277 502.952 C 570.543 500.143, 572.831 500.534, 574.157 503.445 C 574.770 504.790, 575.857 506.115, 576.574 506.390 C 578.499 507.129, 578.422 491.935, 576.488 489.381 C 575.704 488.346, 575.049 486.953, 575.032 486.285 C 575.014 485.616, 573.701 483.021, 572.113 480.518 C 569.843 476.938, 569.089 476.326, 568.581 477.650 C 568.225 478.577, 568.399 479.799, 568.967 480.367 C 569.535 480.935, 570 482.462, 570 483.759 C 570 485.288, 570.406 485.867, 571.155 485.405 C 571.890 484.950, 572.037 485.132, 571.559 485.904 C 570.985 486.833, 570.305 486.771, 568.655 485.639 C 567.470 484.826, 566.607 483.690, 566.738 483.115 C 566.870 482.540, 566.549 480.945, 566.027 479.570 C 565.422 477.981, 565.427 476.854, 566.038 476.476 C 567.431 475.616, 567.224 474.367, 565.384 472.527 C 564.273 471.416, 563.955 469.974, 564.367 467.917 C 564.793 465.783, 564.540 464.761, 563.483 464.355 C 562.667 464.042, 562 462.677, 562 461.322 C 562 458.486, 560.063 456.146, 558.224 456.759 C 557.531 456.990, 556.185 456.232, 555.232 455.075 C 553.540 453.021, 553.419 453.013, 550.018 454.736 M 447.422 458.919 C 448.960 460.524, 449.916 462.327, 449.546 462.926 C 449.176 463.524, 449.689 464.326, 450.687 464.707 C 451.684 465.087, 453.372 466.209, 454.439 467.200 C 455.505 468.190, 456.967 469, 457.689 469 C 458.410 469, 459 469.477, 459 470.059 C 459 470.641, 459.399 470.871, 459.887 470.570 C 460.374 470.269, 461.358 470.726, 462.072 471.587 C 463.134 472.866, 463.135 473.299, 462.079 473.951 C 461.169 474.514, 461.114 474.952, 461.893 475.434 C 462.502 475.810, 463 475.641, 463 475.059 C 463 474.477, 464.125 474, 465.500 474 C 467.286 474, 468 474.540, 468 475.893 C 468 476.934, 468.675 478.045, 469.500 478.362 C 470.325 478.678, 471 479.428, 471 480.028 C 471 480.627, 470.492 480.804, 469.870 480.420 C 469.200 480.006, 468.918 480.255, 469.177 481.032 C 469.586 482.258, 474 483.279, 474 482.147 C 474 481.862, 473.010 480.575, 471.800 479.287 C 469.681 477.031, 469.663 476.841, 471.300 474.069 C 473.368 470.569, 473.407 470, 471.581 470 C 470.801 470, 468.888 469.373, 467.331 468.606 C 465.774 467.839, 462.279 466.230, 459.565 465.029 C 456.412 463.635, 455.071 462.574, 455.851 462.092 C 456.620 461.617, 455.624 460.904, 453.154 460.164 C 451 459.519, 448.679 458.318, 447.996 457.495 C 447.314 456.673, 446.276 456, 445.690 456 C 445.105 456, 445.884 457.313, 447.422 458.919 M 541.160 484.550 C 541.072 486.228, 541.489 488.089, 542.087 488.687 C 542.870 489.470, 542.870 489.962, 542.087 490.446 C 541.489 490.816, 541 490.641, 541 490.059 C 541 489.477, 540.498 489, 539.885 489 C 539.210 489, 539.428 490.004, 540.438 491.546 C 541.478 493.133, 541.848 494.903, 541.421 496.249 C 540.761 498.328, 540.802 498.341, 542.539 496.604 C 544.276 494.867, 544.403 494.883, 546.028 497.037 C 547.161 498.539, 547.946 498.897, 548.421 498.127 C 549.584 496.246, 548.008 493, 545.933 493 C 544.844 493, 544 492.315, 544 491.433 C 544 490.342, 544.584 490.051, 545.919 490.474 C 547.306 490.914, 548.025 490.496, 548.511 488.966 C 549.332 486.379, 548.391 485.209, 546.783 486.817 C 544.473 489.127, 542.149 488.178, 541.723 484.750 L 541.320 481.500 541.160 484.550 M 472.113 486.129 C 472.834 487.433, 473.315 488.880, 473.181 489.344 C 473.047 489.808, 473.501 490, 474.189 489.770 C 475.645 489.285, 479 495.046, 479 498.032 C 479 499.760, 479.304 499.908, 481 499 C 482.570 498.160, 482.997 496.916, 482.985 493.215 C 482.974 489.802, 482.702 488.914, 482 490 C 481.181 491.268, 481.028 491.216, 481.015 489.667 C 481.007 488.636, 480.453 488.026, 479.750 488.274 C 479.063 488.516, 477.375 487.953, 476 487.021 C 470.945 483.597, 470.677 483.536, 472.113 486.129 M 580.244 504 C 579.111 506.475, 577.951 511.414, 577.666 514.975 C 577.382 518.537, 576.665 521.612, 576.074 521.809 C 574.428 522.357, 574.798 526, 576.500 526 C 578.363 526, 578.403 526.877, 576.634 528.921 C 575.883 529.790, 574.976 531.850, 574.619 533.500 C 573.994 536.384, 574.031 536.423, 575.564 534.500 C 579.680 529.340, 582.168 522.554, 583.042 514.102 C 583.536 509.328, 583.572 504.090, 583.122 502.461 L 582.304 499.500 580.244 504 M 320.217 1005.780 C 318.411 1007.276, 314.811 1010.318, 312.217 1012.539 C 302.884 1020.531, 299.139 1022.386, 291.500 1022.799 C 286.613 1023.064, 284.123 1023.662, 283.250 1024.780 C 281.386 1027.169, 281.730 1029.668, 284.250 1032.045 C 287.165 1034.794, 293.127 1034.171, 296.862 1030.727 C 301.128 1026.791, 302.531 1026.767, 307.056 1030.546 C 309.329 1032.446, 311.996 1034, 312.982 1034 C 315.990 1034, 324.334 1027.727, 325.066 1024.915 C 325.848 1021.912, 325.024 1002.985, 324.114 1003.030 C 323.776 1003.047, 322.023 1004.284, 320.217 1005.780" stroke="none" fill="#141414" fill-rule="evenodd"/></svg>